<svg width="52" height="47" viewBox="0 0 52 47" fill="none" xmlns="http://www.w3.org/2000/svg">
<path d="M29.6197 45.7559C30.9696 45.3334 32.0238 44.7882 32.8833 44.1897C32.8833 44.1897 32.8675 44.2083 32.8596 44.2176C32.9822 44.1297 33.0704 44.0445 33.1929 43.9566C33.3564 43.8393 33.5277 43.7127 33.6725 43.5797C33.8016 43.4653 33.912 43.335 34.0411 43.2206C34.3122 42.9387 34.5646 42.6411 34.7748 42.3555C34.8537 42.2625 34.9326 42.1695 34.985 42.07C35.0926 41.9054 35.1659 41.7436 35.2563 41.5804C35.3166 41.4716 35.3848 41.3535 35.4279 41.2461C35.5011 41.0844 35.5572 40.924 35.6211 40.7543C35.6549 40.639 35.7059 40.5224 35.7397 40.4071C35.7865 40.2388 35.8346 40.0877 35.8642 39.9209C35.898 39.8056 35.9146 39.6918 35.9312 39.5779C35.9529 39.4204 35.9917 39.2614 35.9962 39.1053C36.0049 39.0007 36.0136 38.8962 36.0224 38.7916C36.0268 38.6355 36.0485 38.4779 36.0451 38.3311C36.0459 38.2358 36.0403 38.1671 36.0411 38.0718C36.0329 37.761 36.0182 37.4766 35.9863 37.1937C35.9806 37.1249 35.9657 37.0482 35.96 36.9795C35.9408 36.8512 35.9231 36.7402 35.896 36.6213C35.881 36.5446 35.8647 36.4508 35.8497 36.3741C35.824 36.2724 35.8077 36.1785 35.782 36.0768C35.7671 36.0002 35.7428 35.9156 35.72 35.8483C35.6957 35.7637 35.6729 35.6964 35.6579 35.6197C35.6351 35.5524 35.6216 35.4929 35.5987 35.4255C35.5852 35.3661 35.5637 35.3159 35.5516 35.2737C35.5381 35.2142 35.5181 35.1812 35.4966 35.1311C35.4859 35.106 35.4752 35.0809 35.4645 35.0558C35.4431 35.0057 35.4324 34.9806 35.4324 34.9806C42.8973 36.4182 43.4414 34.1928 45.2959 29.8002C45.4474 29.4329 45.6069 29.0564 45.7914 28.6691C46.7709 26.4772 47.6322 25.4805 48.4317 24.7831C48.8833 24.3825 49.317 24.0786 49.7465 23.7232C49.7859 23.6767 49.8518 23.6366 49.9006 23.598C49.9558 23.5329 50.0218 23.4929 50.077 23.4278C50.1322 23.3627 50.1967 23.3054 50.2691 23.2389C50.3165 23.1831 50.3717 23.118 50.419 23.0622C50.4901 22.9785 50.5611 22.8947 50.6321 22.811C50.6794 22.7552 50.7346 22.6901 50.782 22.6343C50.8687 22.532 50.9369 22.4139 51.0223 22.2944C51.0696 22.2386 51.1077 22.1749 51.1457 22.1112C51.1536 22.1019 51.1694 22.0833 51.1773 22.074C51.2835 21.8922 51.3976 21.7011 51.5089 21.4756C52.6208 19.316 48.4935 17.8465 43.0022 18.4188C42.4535 18.4812 41.8969 18.5529 41.3167 18.6525C40.1733 18.8502 38.9855 19.1382 37.7968 19.5214C37.1985 19.7177 36.6017 19.9311 36.0076 20.179C35.7145 20.2982 35.4136 20.4268 35.1219 20.5633C34.2376 20.9647 33.3497 21.4271 32.4939 21.9647L32.4781 21.9833C32.0824 22.2235 31.7198 22.4437 31.3571 22.6638C31.2661 22.7146 31.1844 22.7732 31.0933 22.824C30.7465 23.0255 30.4168 23.2257 30.0949 23.4166C30.0369 23.4473 29.9881 23.4859 29.938 23.5073C29.657 23.6689 29.384 23.8211 29.1281 23.9719C29.0701 24.0027 29.0041 24.0427 28.9461 24.0734C28.6651 24.235 28.3999 24.3779 28.1427 24.5115C28.0846 24.5423 28.0266 24.573 27.9685 24.6037C27.7442 24.7173 27.5199 24.831 27.3207 24.9339C27.2877 24.9539 27.2626 24.9646 27.2296 24.9846C27.0053 25.0982 26.7968 25.1932 26.6054 25.2868C26.5553 25.3083 26.5051 25.3297 26.455 25.3511C26.2636 25.4447 26.0802 25.529 25.9125 25.5947C25.8967 25.6133 25.8795 25.6147 25.8623 25.6161C25.7118 25.6804 25.5614 25.7447 25.4267 25.7904C25.3937 25.8104 25.3514 25.8225 25.3263 25.8333C25.1837 25.8882 25.049 25.9339 24.9315 25.9782C24.9064 25.9889 24.8814 25.9996 24.847 26.0024C24.7374 26.0374 24.6449 26.071 24.5511 26.0873C24.5432 26.0966 24.5088 26.0995 24.4916 26.1009C24.3899 26.1265 24.3053 26.1508 24.2115 26.1671C24.1943 26.1686 24.1692 26.1793 24.152 26.1807C24.0754 26.1956 23.9987 26.2106 23.93 26.2162C23.8612 26.2219 23.7924 26.2275 23.7409 26.2318C23.7409 26.2318 23.7237 26.2332 23.7065 26.2346C23.6549 26.2388 23.6112 26.2338 23.5675 26.2287C23.5239 26.2236 23.4974 26.2172 23.4616 26.2028C23.443 26.187 23.3993 26.182 23.3807 26.1662C23.3077 26.1203 23.2941 26.0608 23.2848 26.0529C23.9189 25.871 24.4709 25.4276 24.7467 24.7819C24.9794 24.2435 24.9751 23.6641 24.7937 23.1425C26.6737 22.6419 29.7426 21.5504 31.6603 19.4025C31.7865 19.2537 31.7775 19.0381 31.6287 18.9118C31.4798 18.7856 31.2642 18.7947 31.138 18.9435C29.2992 20.9984 26.2275 22.0555 24.4478 22.5132C24.224 22.2114 23.9263 21.959 23.5498 21.7995C23.0924 21.6035 22.6054 21.5742 22.1547 21.6718C21.2749 20.1259 19.7916 17.0286 20.032 14.1619C20.0509 13.9699 19.9071 13.8 19.7152 13.7812C19.5233 13.7623 19.3533 13.9061 19.3345 14.098C19.0817 17.1302 20.552 20.2805 21.4919 21.9253C21.087 22.1576 20.7528 22.5139 20.5489 22.9807C20.2731 23.6264 20.331 24.3312 20.6304 24.921C20.6146 24.9396 20.5816 24.9596 20.5566 24.9704C20.5566 24.9704 20.5566 24.9704 20.5472 24.9625C20.5193 24.9388 20.4836 24.9244 20.4463 24.8929C20.437 24.885 20.4277 24.8771 20.4091 24.8613C20.3812 24.8376 20.344 24.8061 20.2975 24.7666C20.2789 24.7509 20.2603 24.7351 20.2403 24.7021C20.2031 24.6706 20.1724 24.6125 20.1244 24.5559C20.0965 24.5322 20.0858 24.5071 20.0658 24.4741C20.0165 24.4003 19.975 24.3172 19.9243 24.2262C19.9057 24.2104 19.895 24.1853 19.8842 24.1602C19.8135 24.0362 19.7506 23.9029 19.6677 23.7367C19.6477 23.7037 19.6356 23.6614 19.6235 23.6192C19.5606 23.4859 19.5056 23.3433 19.4413 23.1928C19.4185 23.1254 19.3956 23.0581 19.3635 22.9829C19.2992 22.8324 19.2414 22.6554 19.1836 22.4784C19.1515 22.4032 19.1365 22.3265 19.1044 22.2513C19.0237 22.007 18.9338 21.7547 18.8503 21.476C18.8396 21.4509 18.8368 21.4166 18.8167 21.3836C18.7211 21.0626 18.6148 20.7165 18.5057 20.3361C18.48 20.2344 18.4544 20.1326 18.4287 20.0309C18.3531 19.7429 18.2668 19.4298 18.1884 19.1074C18.1506 18.9634 18.1128 18.8194 18.0829 18.6661C18.0045 18.3437 17.9233 17.9869 17.842 17.6301C17.8121 17.4768 17.7744 17.3328 17.7352 17.1716C17.6133 16.6365 17.49 16.0841 17.3625 15.4802C16.7386 12.52 15.5564 9.822 14.1581 7.54849C13.6977 6.79018 13.1979 6.07838 12.6945 5.42746C12.3748 5.01239 12.058 4.6317 11.7332 4.26031C11.5415 4.03376 11.3513 3.8244 11.1531 3.62434C8.22662 0.550445 5.29429 -0.593226 4.61517 1.3577C4.5318 1.60685 4.4642 1.8374 4.4045 2.05864C4.38506 2.13812 4.37352 2.2083 4.35268 2.27059C4.32029 2.40305 4.28932 2.55271 4.26483 2.67587C4.24539 2.75535 4.24316 2.83341 4.22372 2.91289C4.20712 3.02675 4.1984 3.13131 4.18968 3.23587C4.18744 3.31394 4.17731 3.40131 4.17507 3.47937C4.17424 3.57463 4.172 3.6527 4.17118 3.74795C4.16894 3.82602 4.176 3.91198 4.17376 3.99004C4.17941 4.05881 4.17576 4.11968 4.18141 4.18844C4.21871 4.74786 4.28757 5.27007 4.31981 5.87317C4.36369 6.93396 4.22894 8.24307 3.31173 10.4559C3.14581 10.8589 2.98636 11.2354 2.82551 11.5948C0.918079 15.9745 -0.326107 17.8939 5.86193 22.3267C5.86193 22.3267 5.84615 22.3453 5.80388 22.3575C5.76161 22.3696 5.70355 22.4003 5.62831 22.4325C5.62831 22.4325 5.62832 22.4325 5.62043 22.4418C4.9117 22.7683 2.88641 23.8173 1.70933 25.9216C0.757637 27.6094 0.373103 29.9861 1.71801 33.1899C1.83445 33.4486 1.94301 33.7166 2.07805 33.9911C2.2131 34.2656 2.35462 34.5135 2.50403 34.7522C2.50403 34.7522 2.50403 34.7522 2.51333 34.7601C2.65345 34.9909 2.80933 35.2031 2.981 35.3967C7.41681 40.7263 16.8475 32.6998 18.4119 31.3079L15.595 38.6266C15.4592 38.9752 15.6307 39.3765 15.9714 39.5216C16.3215 39.6746 16.7242 39.5203 16.8864 39.1782L20.3236 31.8258C20.3236 31.8258 20.419 47.6281 28.7348 46.0449C28.7348 46.0449 28.752 46.0435 28.7692 46.0421C29.0415 45.9851 29.3216 45.9188 29.6175 45.8339L29.6197 45.7559Z" fill="#8BD2A0"/>
</svg>
