<svg width="93" height="84" viewBox="0 0 93 84" fill="none" xmlns="http://www.w3.org/2000/svg">
<path d="M52.3026 82.9422C54.751 82.1761 56.6631 81.1871 58.2219 80.1016C58.2219 80.1016 58.1933 80.1353 58.179 80.1522C58.4013 79.9927 58.5613 79.8383 58.7836 79.6788C59.08 79.4661 59.3908 79.2365 59.6535 78.9952C59.8876 78.7876 60.0879 78.5514 60.322 78.3438C60.8136 77.8326 61.2715 77.2927 61.6528 76.7748C61.7959 76.6061 61.939 76.4374 62.034 76.2569C62.2292 75.9584 62.3621 75.6649 62.5261 75.3689C62.6354 75.1716 62.7591 74.9574 62.8373 74.7626C62.9701 74.4692 63.0718 74.1783 63.1878 73.8706C63.2491 73.6615 63.3416 73.4498 63.4029 73.2408C63.4877 72.9356 63.575 72.6616 63.6286 72.3589C63.6899 72.1499 63.7201 71.9434 63.7502 71.7368C63.7895 71.4511 63.86 71.1628 63.8681 70.8796C63.8839 70.6899 63.8997 70.5003 63.9155 70.3106C63.9237 70.0275 63.963 69.7417 63.9568 69.4754C63.9583 69.3026 63.948 69.1779 63.9495 69.0051C63.9346 68.4413 63.9079 67.9255 63.8501 67.4123C63.8398 67.2876 63.8127 67.1486 63.8025 67.0238C63.7677 66.7913 63.7354 66.5899 63.6863 66.3742C63.6592 66.2352 63.6295 66.0649 63.6024 65.9259C63.5558 65.7414 63.5262 65.5712 63.4796 65.3866C63.4525 65.2476 63.4085 65.0943 63.3671 64.9721C63.3231 64.8188 63.2816 64.6966 63.2545 64.5576C63.2131 64.4354 63.1886 64.3276 63.1471 64.2054C63.1226 64.0975 63.0837 64.0066 63.0617 63.9299C63.0372 63.822 63.0009 63.7622 62.962 63.6713C62.9426 63.6258 62.9231 63.5803 62.9037 63.5348C62.8648 63.4438 62.8454 63.3983 62.8454 63.3983C76.3852 66.0058 77.372 61.9695 80.7355 54.0023C81.0104 53.3362 81.2996 52.6532 81.6343 51.9508C83.4109 47.9751 84.9732 46.1673 86.4232 44.9024C87.2424 44.1759 88.029 43.6247 88.8079 42.98C88.8795 42.8956 88.9991 42.823 89.0875 42.753C89.1877 42.6349 89.3073 42.5623 89.4074 42.4442C89.5076 42.3261 89.6246 42.2223 89.756 42.1016C89.8418 42.0004 89.942 41.8823 90.0278 41.781C90.1566 41.6292 90.2854 41.4774 90.4142 41.3255C90.5001 41.2243 90.6002 41.1062 90.6861 41.005C90.8435 40.8194 90.9672 40.6052 91.122 40.3884C91.2079 40.2872 91.2768 40.1717 91.3458 40.0561C91.3601 40.0393 91.3888 40.0055 91.4031 39.9886C91.5957 39.6589 91.8027 39.3123 92.0045 38.9033C94.0214 34.9864 86.5353 32.321 76.5754 33.359C75.5802 33.4722 74.5706 33.6022 73.5182 33.7828C71.4444 34.1415 69.29 34.6638 67.134 35.3589C66.0488 35.7149 64.9663 36.102 63.8888 36.5516C63.3572 36.7679 62.8113 37.0011 62.2823 37.2486C60.6784 37.9768 59.0679 38.8154 57.5156 39.7905L57.487 39.8242C56.7694 40.2599 56.1116 40.6592 55.4538 41.0586C55.2887 41.1506 55.1405 41.257 54.9754 41.349C54.3462 41.7146 53.7482 42.0776 53.1645 42.4238C53.0593 42.4796 52.9708 42.5496 52.8799 42.5885C52.3703 42.8815 51.875 43.1576 51.4109 43.4311C51.3056 43.4869 51.186 43.5595 51.0807 43.6152C50.5712 43.9082 50.0902 44.1675 49.6236 44.4098C49.5183 44.4656 49.413 44.5213 49.3077 44.5771C48.9008 44.7831 48.494 44.9892 48.1326 45.1759C48.0728 45.2122 48.0273 45.2316 47.9675 45.2679C47.5607 45.474 47.1824 45.6463 46.8354 45.8161C46.7444 45.8549 46.6534 45.8938 46.5624 45.9327C46.2154 46.1025 45.8827 46.2553 45.5785 46.3745C45.5499 46.4083 45.5187 46.4108 45.4875 46.4134C45.2146 46.53 44.9417 46.6466 44.6973 46.7294C44.6375 46.7657 44.5609 46.7877 44.5154 46.8072C44.2567 46.9069 44.0124 46.9897 43.7993 47.07C43.7538 47.0895 43.7083 47.1089 43.6459 47.114C43.4471 47.1774 43.2794 47.2383 43.1092 47.268C43.0949 47.2849 43.0326 47.29 43.0014 47.2925C42.8169 47.3391 42.6635 47.3831 42.4933 47.4128C42.4621 47.4153 42.4166 47.4348 42.3855 47.4373C42.2464 47.4644 42.1074 47.4915 41.9827 47.5018C41.8579 47.512 41.7332 47.5223 41.6397 47.53C41.6397 47.53 41.6085 47.5325 41.5773 47.5351C41.4838 47.5428 41.4045 47.5336 41.3253 47.5244C41.2461 47.5152 41.198 47.5035 41.1331 47.4774C41.0994 47.4488 41.0201 47.4396 40.9864 47.411C40.854 47.3277 40.8294 47.2198 40.8125 47.2055C41.9626 46.8756 42.9638 46.0714 43.4641 44.9002C43.8861 43.9238 43.8782 42.8728 43.5494 41.9267C46.9592 41.0187 52.5255 39.039 56.0038 35.1432C56.2327 34.8733 56.2163 34.4822 55.9463 34.2533C55.6764 34.0243 55.2854 34.0408 55.0564 34.3107C51.7212 38.0377 46.1498 39.9552 42.922 40.7854C42.516 40.238 41.9761 39.7801 41.2931 39.4909C40.4634 39.1353 39.5801 39.0823 38.7628 39.2593C37.1669 36.4553 34.4766 30.8376 34.9127 25.6379C34.9469 25.2898 34.6861 24.9816 34.338 24.9474C33.9899 24.9132 33.6817 25.174 33.6475 25.5221C33.189 31.0218 35.8558 36.7357 37.5606 39.7191C36.8262 40.1404 36.22 40.7866 35.8501 41.6332C35.3499 42.8044 35.4549 44.0828 35.998 45.1526C35.9694 45.1863 35.9096 45.2226 35.8641 45.242C35.8641 45.242 35.8641 45.242 35.8472 45.2277C35.7966 45.1848 35.7317 45.1587 35.6642 45.1015C35.6473 45.0872 35.6304 45.0729 35.5967 45.0443C35.5461 45.0013 35.4786 44.9441 35.3942 44.8725C35.3605 44.8439 35.3268 44.8153 35.2904 44.7555C35.223 44.6983 35.1672 44.593 35.0803 44.4903C35.0297 44.4473 35.0103 44.4018 34.974 44.342C34.8845 44.2081 34.8093 44.0573 34.7173 43.8923C34.6835 43.8636 34.6641 43.8181 34.6447 43.7727C34.5163 43.5478 34.4023 43.306 34.2519 43.0044C34.2156 42.9446 34.1936 42.868 34.1716 42.7913C34.0576 42.5495 33.9579 42.2909 33.8413 42.018C33.7999 41.8958 33.7584 41.7736 33.7001 41.6372C33.5835 41.3642 33.4787 41.0432 33.3738 40.7222C33.3155 40.5858 33.2884 40.4467 33.2301 40.3103C33.0838 39.8671 32.9207 39.4096 32.7693 38.9041C32.7499 38.8586 32.7447 38.7963 32.7084 38.7365C32.535 38.1543 32.3422 37.5266 32.1443 36.8366C32.0977 36.652 32.0512 36.4675 32.0046 36.283C31.8675 35.7606 31.711 35.1927 31.5688 34.608C31.5002 34.3468 31.4317 34.0856 31.3775 33.8075C31.2352 33.2228 31.0879 32.5757 30.9406 31.9285C30.8863 31.6505 30.8178 31.3893 30.7467 31.0969C30.5257 30.1262 30.3021 29.1244 30.0709 28.029C28.9392 22.6599 26.7949 17.7664 24.2587 13.6427C23.4237 12.2673 22.5172 10.9763 21.604 9.79567C21.0242 9.04283 20.4496 8.35234 19.8606 7.67873C19.5129 7.26782 19.1678 6.88809 18.8084 6.52523C13.5004 0.949882 8.1818 -1.12448 6.95003 2.41406C6.79881 2.86596 6.6762 3.28412 6.56791 3.68541C6.53266 3.82957 6.51172 3.95686 6.47392 4.06983C6.41518 4.31009 6.35901 4.58153 6.31458 4.80491C6.27933 4.94907 6.27527 5.09066 6.24003 5.23482C6.20991 5.44134 6.1941 5.63098 6.17828 5.82063C6.17422 5.96222 6.15584 6.1207 6.15178 6.26229C6.15028 6.43507 6.14622 6.57666 6.14472 6.74943C6.14066 6.89103 6.15346 7.04693 6.1494 7.18853C6.15964 7.31325 6.15303 7.42366 6.16327 7.54838C6.23094 8.56304 6.35583 9.51021 6.41431 10.6041C6.4939 12.5281 6.24949 14.9026 4.58587 18.916C4.28493 19.6471 3.99574 20.3301 3.70398 20.9818C0.24434 28.9255 -2.01233 32.407 9.21136 40.4471C9.21136 40.4471 9.18275 40.4809 9.10608 40.5029C9.02941 40.5249 8.92411 40.5806 8.78763 40.6389C8.78763 40.6389 8.78764 40.6389 8.77333 40.6558C7.48786 41.2479 3.81444 43.1507 1.67949 46.9675C-0.0466636 50.0287 -0.744121 54.3395 1.69524 60.1505C1.90643 60.6197 2.10333 61.1058 2.34827 61.6036C2.59321 62.1015 2.8499 62.5512 3.1209 62.9841C3.1209 62.9841 3.1209 62.9841 3.13777 62.9985C3.3919 63.4171 3.67465 63.8019 3.98601 64.153C12.0316 73.8198 29.1366 59.2616 31.9742 56.7369L26.865 70.0114C26.6187 70.6437 26.9296 71.3716 27.5477 71.6347C28.1826 71.9121 28.913 71.6324 29.2073 71.0118L35.4416 57.6763C35.4416 57.6763 35.6146 86.338 50.6976 83.4665C50.6976 83.4665 50.7288 83.4639 50.76 83.4614C51.2538 83.358 51.7618 83.2378 52.2985 83.0838L52.3026 82.9422Z" fill="#55B76B"/>
</svg>
