<svg width="432" height="455" viewBox="0 0 432 455" fill="none" xmlns="http://www.w3.org/2000/svg">
<g opacity="0.4">
<path d="M105.936 132.664C105.936 132.664 56.5052 168.86 61.3646 206.09C66.2239 243.32 146.356 244.89 120.824 254.061C95.2921 263.232 54.4297 228.241 54.4297 228.241C54.4297 228.241 39.8275 238.802 51.0506 290.949C62.2948 343.085 156.324 319.598 156.324 319.598C245.074 454.273 291.925 337.1 291.981 322.678C292.037 308.257 218.37 306.271 223.692 298.328C228.992 290.397 269.967 310.769 295.103 306.108C320.238 301.447 346.295 231.6 340.358 212.625C334.422 193.651 272.226 245.003 272.599 224.04C272.972 203.077 355.041 220.561 338.593 148.629C322.144 76.697 326.65 85.0932 295.215 137.317C263.8 189.528 222.247 167.819 249.229 152.749C349.063 96.9744 280.168 10.3631 280.168 10.3631C161.004 53.9797 212.391 146.376 196.646 145.037C180.934 143.706 209.891 42.2187 190.387 60.4328C170.883 78.647 140.924 57.4321 120.944 96.4733C100.975 135.536 165.575 197.915 139.7 207.913C113.826 217.911 105.915 132.676 105.915 132.676L105.936 132.664ZM251.666 247.892C271.67 243.209 287.959 250.002 285.451 260.863C282.943 271.723 242.411 270.2 242.411 270.2C228.526 264.643 231.651 252.554 251.666 247.892ZM172.576 169.915C189.142 187.402 190.612 196.409 189.262 204.327C189.262 204.327 166.865 196.256 162.667 180.355C158.456 164.433 155.989 152.44 172.576 169.915ZM121.12 277.17C133.522 282.003 147.809 283.656 140.257 293.061C140.257 293.061 118.755 301.566 110.122 290.43C101.478 279.272 108.717 272.338 121.12 277.17Z" fill="#B7D331"/>
<path d="M-5.564 454.33C-5.564 454.33 115.425 328.502 200.272 30.4505" stroke="#02604D" stroke-width="0.5" stroke-linecap="round" stroke-linejoin="round"/>
</g>
</svg>
