<svg width="72" height="69" viewBox="0 0 72 69" fill="none" xmlns="http://www.w3.org/2000/svg">
<path d="M21.1776 7.57689L16.5831 2.69522C16.2774 2.37101 15.7217 2.60259 15.7494 3.04722L16.648 21.3141C16.6572 21.5364 16.8147 21.7217 17.037 21.768L35.5818 25.4825C36.0265 25.5752 36.3321 25.0564 36.0542 24.7044L32.1359 19.832C31.997 19.656 31.9877 19.4059 32.1359 19.2299C33.6921 17.3032 42.6125 6.65058 49.5136 5.13142C49.9953 5.02953 50.0323 4.36258 49.5599 4.21437L37.453 0.397962C34.7945 -0.43572 31.9044 0.0552261 29.6719 1.73185L21.8168 7.63247C21.6223 7.78068 21.3444 7.75289 21.1776 7.57689Z" fill="#5B9739"/>
<path d="M43.3258 12.1157C43.2239 11.6711 43.3628 11.2172 43.7056 10.9115C45.4748 9.34603 51.1994 4.81636 55.8773 7.05803C60.4626 9.2534 61.0369 17.2475 61.0925 20.0913C61.1017 20.6841 60.6942 21.1936 60.1106 21.314L47.3182 24.0652C46.6512 24.2041 45.9936 23.7873 45.8454 23.1296L43.335 12.1157H43.3258Z" fill="#5B9739"/>
<path d="M64.983 38.2374L71.5598 36.9035C72.0044 36.8109 72.0878 36.2273 71.6988 36.005L55.7013 27.1494C55.5068 27.0383 55.266 27.0846 55.1177 27.2421L42.1957 41.0534C41.89 41.3869 42.1586 41.9149 42.6125 41.8593L48.8188 41.0905C49.0411 41.0627 49.2542 41.1831 49.3283 41.4054C50.1434 43.749 54.5156 56.9304 52.1628 63.5999C51.9961 64.0723 52.5426 64.4428 52.9224 64.1186L62.5283 55.8466C64.6403 54.0311 65.7426 51.3077 65.4925 48.538L64.6125 38.7469C64.5939 38.506 64.7607 38.2745 65.0015 38.2282L64.983 38.2374Z" fill="#5B9739"/>
<path d="M49.4581 54.6794C49.8935 54.8276 50.1992 55.1889 50.2825 55.6427C50.6808 57.9678 51.5238 65.2208 47.1516 68.0183C42.872 70.7602 35.7765 67.0364 33.3217 65.5913C32.8123 65.2857 32.5992 64.6743 32.803 64.1093L37.203 51.78C37.4346 51.1409 38.1293 50.7981 38.7777 51.0204L49.4581 54.6794Z" fill="#5B9739"/>
<path d="M17.4445 59.8022L15.4344 66.2031C15.2955 66.6292 15.7679 66.9997 16.1477 66.7588L31.6357 57.0418C31.8209 56.9214 31.9043 56.6898 31.8395 56.486L26.0129 38.497C25.874 38.0709 25.2719 38.0431 25.1052 38.4692L22.7708 44.2772C22.6875 44.4903 22.4744 44.6107 22.2521 44.5736C19.8159 44.1568 6.15278 41.5909 1.45637 36.3109C1.1229 35.9404 0.53006 36.2368 0.631955 36.7278L3.21637 49.1311C3.78142 51.8545 5.63405 54.1425 8.18141 55.2633L17.1759 59.2372C17.3982 59.3391 17.5187 59.5892 17.4445 59.8208V59.8022Z" fill="#5B9739"/>
<path d="M10.5621 38.2563C10.2194 38.562 9.7562 38.6639 9.32084 38.5064C7.09768 37.7376 0.344858 34.9586 0.0113854 29.7805C-0.312824 24.7136 6.37516 20.3043 8.82989 18.8593C9.33936 18.5629 9.98778 18.674 10.3768 19.1187L19.0286 28.9376C19.4825 29.447 19.4362 30.2252 18.9267 30.679L10.5528 38.2563H10.5621Z" fill="#5B9739"/>
</svg>
