<svg width="132" height="132" viewBox="0 0 132 132" fill="none" xmlns="http://www.w3.org/2000/svg">
<g filter="url(#filter0_d_4_107)">
<circle cx="66" cy="66" r="55" fill="white"/>
</g>
<g clip-path="url(#clip0_4_107)">
<path d="M30 65.597C30.1984 64.4872 30.2842 63.3406 30.6174 62.2725C31.3229 60.0039 32.1314 57.7647 32.9496 55.5329C33.7826 53.2545 34.6768 51.0007 35.5465 48.7345C35.6273 48.5239 35.718 48.3181 35.8233 48.0657C36.5926 48.3597 37.3202 48.6366 38.1091 48.9379C38.0184 49.2074 37.9498 49.4426 37.8641 49.6704C36.4358 53.453 34.9536 57.2135 33.5915 61.0182C31.955 65.5896 32.1975 70.1464 33.9884 74.637C34.0986 74.9138 34.2064 75.1931 34.3387 75.5336C33.5817 75.8497 32.8467 76.1583 32.0579 76.4891C31.22 74.5439 30.5782 72.606 30.2817 70.5628C30.1886 69.9283 30.0931 69.2914 30 68.6544C30 67.6353 30 66.6161 30 65.597Z" fill="black"/>
<path d="M101.152 94.7847H98.6943V83.5276H101.152V94.7847Z" fill="black"/>
<path d="M101.151 99.7873H98.6501C98.6501 99.3439 98.6501 98.9397 98.6501 98.533C98.6501 98.1263 98.6501 97.7588 98.6501 97.2836H101.151V99.7849V99.7873Z" fill="black"/>
<path d="M57.3969 81.5407V84.7059C58.4724 85.1445 58.6292 85.3772 58.6292 86.5286C58.6292 89.5395 58.6292 92.5504 58.6292 95.5613C58.6292 96.6833 58.4553 96.9357 57.3749 97.3472V101.002H54.8981V97.3252H42.4038V100.99H39.8927V97.3276C38.7559 97.1243 38.5942 96.3354 38.604 95.3628C38.6359 92.4696 38.6163 89.5738 38.6163 86.6781C38.6163 85.2253 38.849 84.946 40.3116 84.7084C39.9466 83.824 39.584 82.9543 39.2263 82.0797C38.2341 79.6641 37.188 77.2681 36.2644 74.8256C34.2898 69.5952 34.4442 64.3623 36.4212 59.1612C38.7706 52.9826 41.1298 46.8065 43.4891 40.6304C44.5449 37.8621 46.7253 36.767 49.5745 37.5191C49.8146 37.5828 50.187 37.4431 50.3928 37.2716C52.3772 35.6131 54.5281 34.2363 56.9045 33.2098C62.2697 30.8873 67.7966 30.3973 73.4754 31.7325C77.4834 32.6757 81.0675 34.491 84.2009 37.1663C84.6296 37.5313 84.9824 37.6244 85.5459 37.4529C87.6773 36.7988 90.0145 37.7788 90.889 39.8269C92.0601 42.5658 93.0768 45.3733 94.1376 48.1588C95.6687 52.1766 97.244 56.1797 98.6821 60.2293C100.544 65.4745 100.238 70.6878 98.1333 75.8129C96.9231 78.7626 95.6932 81.7024 94.4438 84.7157C94.6373 84.7427 94.7819 84.7623 94.9264 84.7819C95.7079 84.897 96.1342 85.3282 96.1367 86.1342C96.1514 89.3999 96.1465 92.6655 96.1391 95.9312C96.1391 96.7274 95.6614 97.1463 94.897 97.3203V100.985H92.4251V97.3423H79.9088V100.998H77.4295V97.3276C76.305 97.1243 76.1164 96.3722 76.1262 95.4143C76.1556 92.4745 76.1556 89.5322 76.1262 86.5899C76.1164 85.6491 76.3418 84.9411 77.3707 84.7427V81.5481C70.7193 84.1474 64.0851 84.1645 57.3945 81.5407H57.3969ZM48.8322 51.5887C52.3184 51.988 53.6266 53.4628 53.6266 56.8804C53.6266 59.5899 53.6486 62.2995 53.6168 65.009C53.6021 66.3564 53.8422 67.6206 54.4253 68.8382C55.8339 71.7804 56.7673 74.8673 57.1226 78.1182C57.1691 78.5372 57.3259 78.7993 57.762 78.983C64.1929 81.7146 70.6115 81.7122 77.0351 78.9659C77.4295 78.7969 77.5985 78.5641 77.6426 78.155C77.9979 74.8575 78.9558 71.7314 80.384 68.7451C80.9352 67.5936 81.1606 66.3932 81.1484 65.1168C81.1214 62.1525 81.1337 59.1881 81.1435 56.2238C81.1484 54.3129 81.9666 52.8577 83.7183 52.0541C84.3675 51.7577 85.1221 51.6965 85.8815 51.5152C85.8154 51.3388 85.7443 51.1256 85.6586 50.9198C84.6835 48.6194 83.6962 46.3263 82.7408 44.021C82.513 43.4723 82.2508 42.872 82.268 42.3037C82.2949 41.2943 82.5252 40.2899 82.6869 39.1727C73.054 30.7085 59.0947 32.4944 51.8945 39.4177C52.6197 40.6647 52.7887 41.9803 52.2963 43.3473C52.0464 44.0431 51.7402 44.7192 51.4536 45.4003C50.5912 47.441 49.7264 49.4793 48.8322 51.5911V51.5887ZM79.9455 84.7378C80.0459 84.75 80.1341 84.7721 80.2199 84.7721C83.902 84.7721 87.5842 84.7647 91.2663 84.7868C91.6975 84.7868 91.8127 84.5614 91.94 84.2478C93.2654 81.0434 94.6153 77.8488 95.9162 74.6345C97.6825 70.2689 98.0157 65.7881 96.411 61.3416C93.9857 54.624 91.3815 47.9702 88.8434 41.2943C88.3436 39.9763 87.1383 39.4275 85.9575 39.9273C84.806 40.4124 84.419 41.5736 84.98 42.9039C86.3568 46.1622 87.7287 49.423 89.1227 52.6739C89.6519 53.9062 89.9042 55.1777 89.8993 56.5178C89.8871 61.0794 89.8944 65.6435 89.8944 70.2052V70.9769H87.3931C87.3931 70.6854 87.3931 70.4355 87.3931 70.1831C87.3931 65.5749 87.3882 60.9643 87.398 56.3561C87.398 55.6187 87.2314 54.967 86.614 54.5236C86.0285 54.1022 85.3671 54.0263 84.708 54.3448C83.9657 54.7049 83.6424 55.337 83.6424 56.1479C83.6424 59.1808 83.6277 62.2162 83.6473 65.2491C83.657 66.8048 83.3876 68.2869 82.6918 69.6834C80.3424 74.4116 79.6148 79.4412 79.9431 84.7378H79.9455ZM54.8785 84.7745C54.8785 83.8534 54.8687 83.0425 54.8785 82.2316C54.9348 77.9492 54.0823 73.8604 52.213 70.0018C51.4389 68.4045 51.091 66.7435 51.113 64.9698C51.1522 62.0741 51.1302 59.1783 51.1204 56.2826C51.1155 54.9303 50.2213 54.0606 49.0062 54.1953C47.9993 54.3056 47.377 55.1091 47.3745 56.3365C47.3696 60.9692 47.3745 65.6019 47.3745 70.2346C47.3745 70.4796 47.3745 70.7246 47.3745 70.9597H44.8732C44.8732 70.6511 44.8732 70.3963 44.8732 70.1439C44.8732 65.7195 44.8904 61.295 44.8634 56.8706C44.8536 55.2904 45.1476 53.8082 45.7797 52.3555C47.1688 49.178 48.4966 45.9736 49.8538 42.7814C50.187 41.9974 50.187 41.2429 49.6407 40.5569C49.1409 39.9273 48.4623 39.6578 47.671 39.773C46.7253 39.9126 46.1937 40.5373 45.8654 41.4021C43.4866 47.6713 41.0931 53.9332 38.7118 60.2024C36.9749 64.7787 36.8548 69.3894 38.6187 73.9682C39.9662 77.4617 41.4679 80.8964 42.8741 84.3679C43.0407 84.7745 43.2955 84.777 43.6311 84.7745C47.1737 84.7696 50.7186 84.7721 54.2611 84.7721C54.44 84.7721 54.6188 84.7721 54.8736 84.7721L54.8785 84.7745ZM56.0789 94.7504V87.3322H41.1568V94.7504H56.0789ZM93.6158 87.3273H78.6961V94.743H93.6158V87.3273Z" fill="black"/>
<path d="M37.2247 44.3101C38.0062 44.6066 38.7314 44.8834 39.5472 45.1921C39.3071 45.8339 39.0793 46.444 38.8245 47.1226C38.043 46.8261 37.3007 46.5419 36.4897 46.2357C36.7396 45.5816 36.9724 44.9691 37.2247 44.3101Z" fill="black"/>
<path d="M56.0789 94.7504H41.1567V87.3322H56.0789V94.7504Z" fill="#22B573"/>
<path d="M93.6157 87.3273V94.743H78.696V87.3273H93.6157Z" fill="#22B573"/>
<path d="M67.113 67.4295V70.901C66.329 70.9696 65.5598 71.0357 64.6607 71.1141C64.6313 70.2787 64.5161 69.4751 64.597 68.6936C64.7195 67.5153 64.4353 66.8587 63.2079 66.3393C60.6674 65.2614 59.5307 62.9904 59.0603 60.3959C58.0559 54.8495 60.7825 50.3662 65.2266 47.8257C69.1586 45.5792 73.3504 45.611 77.596 46.8286C78.5735 47.1079 78.9214 47.9261 78.3799 48.7713C77.2579 50.523 77.0252 52.4633 76.9296 54.4722C76.8341 56.4786 76.8169 58.5169 76.4225 60.4719C75.5185 64.9674 72.2553 67.6549 67.5417 67.4271C67.429 67.4222 67.3139 67.4271 67.113 67.4271V67.4295ZM75.516 48.8179C74.8227 48.7223 74.2323 48.6096 73.637 48.5606C70.3762 48.2887 67.3825 48.9526 64.8273 51.1183C61.7037 53.7666 60.5964 57.4365 61.8507 61.1554C62.3358 62.5959 63.1663 63.7694 64.7611 64.3231C65.1997 60.3861 66.138 56.6428 67.75 53.0194C68.5192 53.3599 69.2468 53.6809 70.0136 54.0214C68.5217 57.5345 67.5638 61.104 67.2404 64.8743C68.6711 65.0041 69.9965 64.867 71.219 64.1344C73.1397 62.9855 73.9285 61.1432 74.1711 59.0534C74.3499 57.5198 74.3573 55.9617 74.394 54.4134C74.4406 52.5245 74.8007 50.7018 75.5111 48.8179H75.516Z" fill="#22B573"/>
<path d="M76.6798 38.134C76.3173 38.8788 75.9767 39.5819 75.5897 40.3757C71.0329 38.2712 66.3512 37.9307 61.5274 39.4129C61.3069 38.7489 61.1085 38.1634 60.9174 37.5755C60.8684 37.426 60.8439 37.2692 60.7949 37.0463C66.2459 35.351 71.5057 35.7307 76.6823 38.1316L76.6798 38.134Z" fill="black"/>
<path d="M56.821 41.7231C56.3433 41.0224 55.9023 40.3756 55.4124 39.6554C56.2943 39.1409 57.1395 38.646 58.0656 38.1046C58.4502 38.8935 58.8005 39.6088 59.1631 40.3511C58.3816 40.8093 57.6319 41.2478 56.821 41.7231Z" fill="black"/>
</g>
<defs>
<filter id="filter0_d_4_107" x="0" y="0" width="132" height="132" filterUnits="userSpaceOnUse" color-interpolation-filters="sRGB">
<feFlood flood-opacity="0" result="BackgroundImageFix"/>
<feColorMatrix in="SourceAlpha" type="matrix" values="0 0 0 0 0 0 0 0 0 0 0 0 0 0 0 0 0 0 127 0" result="hardAlpha"/>
<feMorphology radius="1" operator="dilate" in="SourceAlpha" result="effect1_dropShadow_4_107"/>
<feOffset/>
<feGaussianBlur stdDeviation="5"/>
<feComposite in2="hardAlpha" operator="out"/>
<feColorMatrix type="matrix" values="0 0 0 0 0.545098 0 0 0 0 0.823529 0 0 0 0 0.627451 0 0 0 0.4 0"/>
<feBlend mode="normal" in2="BackgroundImageFix" result="effect1_dropShadow_4_107"/>
<feBlend mode="normal" in="SourceGraphic" in2="effect1_dropShadow_4_107" result="shape"/>
</filter>
<clipPath id="clip0_4_107">
<rect width="71.1514" height="70" fill="white" transform="translate(30 31)"/>
</clipPath>
</defs>
</svg>
