<svg width="86" height="123" viewBox="0 0 86 123" fill="none" xmlns="http://www.w3.org/2000/svg">
<g style="mix-blend-mode:overlay">
<path d="M37.7492 77.2164C37.5716 74.9293 36.3207 61.4177 31.4442 55.1265C5.70323 41.3516 17.9465 17.8131 17.9465 17.8131C28.7656 23.2662 35.4155 32.1196 36.5743 40.1815C37.3296 45.4111 36.4263 50.821 35.6896 54.0105C38.4859 58.4454 40.0525 64.6652 40.9138 69.5668C41.5311 68.2667 42.1582 66.9601 42.8672 65.6693C47.4026 57.3501 49.9761 50.9971 51.4198 46.1764C34.4283 31.8179 54.5372 0.146138 54.5372 0.146138C57.0109 3.74493 67.1325 7.0058 67.2881 23.408C67.4064 35.3061 59.958 42.6021 55.8427 45.7239C54.6359 50.1994 52.5295 55.8524 48.9135 63.0236C50.1526 62.2435 51.3759 61.5453 52.4691 60.992C62.0199 33.4043 85.9612 42.9969 85.9612 42.9969C76.3688 72.3361 58.5687 67.6392 53.0358 65.352C49.9824 67.0728 46.2115 69.7767 44.934 70.7109C40.3012 80.2353 38.0883 89.9054 37.1374 98.2388C38.9542 96.627 41.2023 94.8947 43.5743 93.62C52.9174 71.713 80.8084 80.0049 80.8084 80.0049C72.0495 109.693 48.3666 101.136 43.0723 98.8016C40.1357 100.885 37.6305 103.418 36.6158 104.488C36.1137 114.498 37.2687 121.394 37.3022 121.528L33.2345 122.253C33.1159 121.593 31.6382 112.764 32.6929 100.515C32.2139 98.7303 29.8563 90.5382 25.6378 85.8534C2.61975 86.5043 0.544573 47.8415 0.544573 47.8415L14.9362 58.8573C25.3385 66.8138 27.5952 77.239 28.0555 82.4114C30.5587 84.9364 32.5043 88.3649 33.905 91.5348C34.7315 86.9601 35.9624 82.1407 37.723 77.2198L37.7492 77.2164Z" fill="white"/>
</g>
</svg>
