<svg width="78" height="76" viewBox="0 0 78 76" fill="none" xmlns="http://www.w3.org/2000/svg">
<path d="M36.598 75.4406C38.7061 75.3292 40.4522 74.9307 41.9109 74.3926C41.9109 74.3926 41.8803 74.4126 41.8651 74.4226C42.0785 74.3487 42.2567 74.2541 42.4448 74.1749C42.7347 74.0511 43.0093 73.9372 43.2739 73.8081C43.5232 73.6889 43.712 73.5439 43.9361 73.4194C44.4506 73.1053 44.9146 72.7805 45.3181 72.4299C45.461 72.3147 45.6039 72.1996 45.7316 72.0945C45.9463 71.8889 46.1204 71.688 46.3098 71.4771C46.4328 71.3314 46.5657 71.201 46.6886 71.0553C46.8528 70.8391 47.0016 70.6328 47.1505 70.4266C47.2482 70.2756 47.3612 70.1146 47.4436 69.9736C47.5671 69.762 47.6907 69.5505 47.8043 69.3237C47.8767 69.1674 47.9491 69.0111 48.0215 68.8548C48.1198 68.6379 48.2181 68.4211 48.2912 68.1989C48.3483 68.0526 48.3954 67.891 48.4525 67.7447C48.5256 67.5225 48.5986 67.3003 48.6564 67.0882C48.6829 66.9618 48.7094 66.8355 48.736 66.7091C48.8415 66.2695 48.9217 65.8245 48.9814 65.4148C49.0026 65.3138 49.0139 65.1973 49.0351 65.0963C49.0623 64.9041 49.0741 64.7219 49.086 64.5396C49.0873 64.408 49.1138 64.2816 49.125 64.1652C49.1316 64.0083 49.1382 63.8513 49.1395 63.7196C49.1407 63.588 49.1367 63.4816 49.1479 63.3652C49.1492 63.2335 49.1451 63.1271 49.1411 63.0207C49.1371 62.9143 49.143 62.8232 49.1237 62.7268C49.1143 62.6456 49.1202 62.5545 49.1109 62.4734C49.1015 62.3923 49.0922 62.3112 49.0928 62.2453C49.0881 62.2048 49.0835 62.1642 49.0788 62.1236C49.0694 62.0425 49.0647 62.0019 49.0647 62.0019C59.3449 66.8922 60.9694 63.8689 65.3037 58.1822C65.6678 57.7046 66.032 57.2269 66.4421 56.7193C68.6924 53.9199 70.3038 52.7806 71.7185 52.075C72.5276 51.6776 73.2597 51.3959 74.0229 51.0285C74.0994 50.9786 74.2011 50.9339 74.2875 50.8993C74.3946 50.8294 74.4963 50.7848 74.6133 50.7302C74.7203 50.6604 74.8427 50.5805 74.9597 50.5259C75.0514 50.466 75.1584 50.3962 75.2501 50.3363C75.3878 50.2464 75.5254 50.1566 75.653 50.0514C75.7448 49.9915 75.8518 49.9216 75.9336 49.8465C76.0918 49.7214 76.24 49.581 76.4035 49.4306C76.4952 49.3707 76.567 49.2802 76.6488 49.2051C76.664 49.1951 76.6946 49.1751 76.7099 49.1651C76.9399 48.9495 77.1752 48.7087 77.4058 48.4273C79.8377 45.7055 74.3928 42.0419 66.2198 40.8136C65.4005 40.6943 64.5506 40.5949 63.6953 40.5209C61.9696 40.3827 60.1414 40.355 58.2715 40.4636C57.3339 40.5306 56.3809 40.6075 55.4427 40.7403C54.9659 40.8117 54.4892 40.8831 53.9971 40.9644C52.5462 41.2139 51.1146 41.5597 49.6617 42.0066L49.6312 42.0266C48.9809 42.2331 48.3612 42.4196 47.7568 42.5961C47.6145 42.6454 47.4622 42.6794 47.3199 42.7286C46.7308 42.8952 46.1823 43.057 45.6491 43.2089C45.5526 43.2282 45.4662 43.2629 45.3698 43.2822C44.9076 43.4095 44.4608 43.5267 44.0293 43.634C43.9329 43.6533 43.8212 43.6826 43.7095 43.7119C43.2474 43.8392 42.8059 43.9311 42.3743 44.0384C42.2779 44.0578 42.1815 44.0771 42.095 44.1117C41.7193 44.2044 41.3589 44.287 41.0291 44.3496C40.9833 44.3796 40.9327 44.369 40.8769 44.3836C40.5165 44.4663 40.1714 44.5389 39.8569 44.5916C39.7757 44.601 39.7046 44.6256 39.6235 44.6349C39.309 44.6876 39.0197 44.7456 38.7457 44.7936C38.7152 44.8136 38.6899 44.8083 38.6493 44.813C38.3907 44.851 38.1726 44.8844 37.9545 44.9177C37.8986 44.9324 37.8328 44.9317 37.7769 44.9464C37.5588 44.9797 37.346 44.9878 37.1585 45.0012C37.1179 45.0059 37.0773 45.0106 37.0368 45.0153C36.8745 45.034 36.7176 45.0274 36.5706 45.0361C36.5553 45.0461 36.5048 45.0355 36.4895 45.0454C36.3326 45.0389 36.1856 45.0476 36.0692 45.0363C36.0539 45.0463 36.0034 45.0357 35.9781 45.0304C35.8617 45.0191 35.7453 45.0079 35.629 44.9966C35.5279 44.9754 35.4367 44.9695 35.3509 44.9383C35.3509 44.9383 35.3257 44.9329 35.3004 44.9276C35.2246 44.9117 35.164 44.8858 35.1035 44.8599C35.043 44.834 35.0077 44.8134 34.9625 44.7775C34.9272 44.7569 34.882 44.721 34.862 44.6904C34.7769 44.5934 34.7675 44.5123 34.7728 44.487C35.7557 44.4559 36.7171 44.0245 37.3684 43.185C37.912 42.4811 38.1277 41.6424 38.0594 40.8365C40.9668 40.8138 45.8232 40.3692 49.4269 37.9728C49.6716 37.813 49.7253 37.4945 49.5656 37.2498C49.4058 37.0052 49.0873 36.9515 48.8426 37.1112C45.417 39.4131 40.5613 39.7919 37.8162 39.7958C37.5985 39.2619 37.2484 38.7926 36.7707 38.4284C36.1926 37.9771 35.5009 37.7527 34.8073 37.7258C34.1077 35.1512 33.1176 30.1275 34.5393 26.0589C34.623 25.7862 34.4992 25.4963 34.2165 25.3973C33.9438 25.3137 33.6539 25.4375 33.5549 25.7202C32.0449 30.0209 33.0138 35.1457 33.7473 37.8726C33.0718 38.0737 32.4502 38.4578 31.9937 39.0611C31.3424 39.9007 31.1653 40.9322 31.3839 41.9017C31.3534 41.9217 31.3075 41.9516 31.267 41.9563C31.267 41.9563 31.267 41.9563 31.257 41.941C31.227 41.8951 31.1818 41.8593 31.1265 41.8081C31.1166 41.7928 31.1066 41.7775 31.0866 41.7469C31.0567 41.701 31.0167 41.6399 30.9668 41.5634C30.9469 41.5329 30.9269 41.5023 30.8969 41.4564C30.857 41.3952 30.8377 41.2988 30.7931 41.1971C30.7631 41.1512 30.7585 41.1106 30.7438 41.0548C30.7045 40.9278 30.6652 40.8008 30.6312 40.6485C30.6112 40.618 30.6066 40.5774 30.6019 40.5368C30.5532 40.3287 30.5099 40.0953 30.4565 39.8466C30.4419 39.7908 30.4425 39.7249 30.4279 39.669C30.3945 39.4509 30.3612 39.2328 30.3231 38.9742C30.3038 38.8777 30.2897 38.7561 30.2857 38.6497C30.2576 38.4063 30.2349 38.1376 30.2022 37.8537C30.1882 37.732 30.1741 37.6103 30.1754 37.4786C30.1486 37.1036 30.1271 36.7032 30.1009 36.2623C30.0963 36.2218 30.1069 36.1712 30.0922 36.1154C30.0667 35.6086 30.0618 35.0667 30.0522 34.4841C30.0435 34.3371 30.04 34.1649 30.0466 34.008C30.0357 33.5571 30.0302 33.0809 30.0452 32.5695C30.0524 32.3467 30.0496 32.1087 30.0568 31.8859C30.0566 31.3845 30.0769 30.8478 30.0873 30.2958C30.0845 30.0578 30.0917 29.835 30.1042 29.5869C30.1171 28.7716 30.1506 27.921 30.2 26.9946C30.3952 22.4837 29.7027 18.1162 28.5137 14.291C28.1207 13.021 27.6765 11.8062 27.1912 10.662C26.8789 9.94988 26.5614 9.26308 26.2385 8.60154C26.0448 8.20462 25.8458 7.83297 25.6467 7.46132C22.5496 1.91592 18.737 -0.850681 17.0206 1.73107C16.8047 2.06834 16.6094 2.37033 16.4546 2.66767C16.3928 2.77343 16.3615 2.85924 16.2998 2.965C16.2067 3.15657 16.1037 3.33286 16.026 3.51444C15.9742 3.6355 15.9277 3.73129 15.8912 3.84236C15.8341 3.9887 15.7617 4.145 15.7199 4.28135C15.6833 4.39243 15.6468 4.5035 15.6103 4.61457C15.5685 4.75092 15.532 4.862 15.5054 4.98837C15.4789 5.11473 15.4424 5.2258 15.4159 5.35217C15.3946 5.45326 15.3734 5.55436 15.3674 5.64547C15.2076 6.4695 15.1341 7.25893 14.9331 8.15347C14.5941 9.70511 13.9028 11.5522 11.7682 14.4287C11.3834 14.9417 11.004 15.4293 10.6451 15.8817C6.2303 21.5118 3.72112 23.8479 11.032 32.574C11.032 32.574 11.0014 32.594 10.9356 32.5934C10.8697 32.5928 10.7733 32.6121 10.6616 32.6414C10.6616 32.6414 10.6616 32.6414 10.6463 32.6514C9.49462 32.8581 6.16465 33.6364 3.69347 36.2312C1.68289 38.329 0.238185 41.6274 0.97896 46.7703C1.0357 47.1912 1.11771 47.6175 1.20971 48.059C1.30171 48.5005 1.40898 48.9321 1.53686 49.3284C1.53686 49.3284 1.53685 49.3284 1.54683 49.3437C1.67472 49.7399 1.82324 50.101 1.97703 50.4367C6.40477 59.8239 23.085 51.7034 25.8793 50.2716L19.0718 59.8192C18.7382 60.2769 18.8283 60.9159 19.286 61.2495C19.7284 61.5931 20.3774 61.5183 20.731 61.0912L28.4636 51.7247C28.4636 51.7247 22.6977 74.6586 35.3465 75.4944C35.3465 75.4944 35.3718 75.4997 35.3971 75.505C35.8121 75.5394 36.2476 75.5385 36.7038 75.5024L36.598 75.4406Z" fill="#8BD2A0"/>
</svg>
