<svg width="124" height="101" viewBox="0 0 124 101" fill="none" xmlns="http://www.w3.org/2000/svg">
<path d="M91.1095 34.1846L96.2461 0.954755C96.4232 -0.175012 97.8845 -0.356758 98.2633 0.704241C100.925 8.13614 105.437 25.5002 94.4306 36.1003L91.1095 34.1846Z" fill="#B7D331"/>
<path d="M88.8118 41.9507L57.5347 54.4223C56.4719 54.8448 55.5715 53.6806 56.2948 52.8161C61.3527 46.7497 74.0367 34.0423 88.7774 38.1193L88.8118 41.9507Z" fill="#B7D331"/>
<path d="M97.2547 39.5483L123.395 60.7487C124.286 61.4707 123.705 62.8215 122.593 62.6152C114.824 61.1564 97.5302 56.2836 93.9189 41.4493L97.2547 39.5533V39.5483Z" fill="#B7D331"/>
<path d="M94.4377 39.4159L89.0486 39.9141L94.5855 99.615L99.9745 99.1168L94.4377 39.4159Z" fill="#B7D331"/>
<path d="M96.837 41.3538C97.9193 38.3607 96.3663 35.0584 93.3683 33.9779C90.3703 32.8973 87.0625 34.4478 85.9802 37.4409C84.8979 40.434 86.4509 43.7363 89.4489 44.8168C92.4469 45.8974 95.7547 44.3469 96.837 41.3538Z" fill="#AABC02"/>
<path d="M95.4293 40.9389C94.5782 43.1542 92.0837 44.2643 89.8647 43.4146C87.6457 42.5648 86.5338 40.0744 87.385 37.8591C88.2361 35.6437 90.7306 34.5336 92.9496 35.3834C95.1686 36.2332 96.2805 38.7236 95.4293 40.9389Z" fill="white"/>
<path opacity="0.25" d="M75.4881 45.5757L66.9862 49.0731" stroke="#89960B" stroke-width="0.67" stroke-miterlimit="10" stroke-linecap="round"/>
<path opacity="0.25" d="M84.3443 41.936L78.6911 44.2594" stroke="#89960B" stroke-width="0.67" stroke-miterlimit="10" stroke-linecap="round"/>
<path opacity="0.25" d="M102.701 46.4303L98.6077 43.208" stroke="#89960B" stroke-width="0.67" stroke-miterlimit="10" stroke-linecap="round"/>
<path opacity="0.25" d="M111.976 53.7345L104.753 48.0464" stroke="#89960B" stroke-width="0.67" stroke-miterlimit="10" stroke-linecap="round"/>
<path opacity="0.25" d="M119.494 59.6587L114.697 55.8765" stroke="#89960B" stroke-width="0.67" stroke-miterlimit="10" stroke-linecap="round"/>
<path opacity="0.25" d="M94.5634 20.7944L93.1464 29.867" stroke="#89960B" stroke-width="0.67" stroke-miterlimit="10" stroke-linecap="round"/>
<path opacity="0.25" d="M96.0395 11.3486L95.0948 17.3806" stroke="#89960B" stroke-width="0.67" stroke-miterlimit="10" stroke-linecap="round"/>
<path opacity="0.25" d="M88.3001 38.2274C88.9693 36.4934 90.9176 35.624 92.6544 36.292" stroke="#89960B" stroke-width="0.52" stroke-miterlimit="10" stroke-linecap="round"/>
<path opacity="0.25" d="M94.5929 40.6392C93.9238 42.3731 91.9754 43.2425 90.2386 42.5745" stroke="#89960B" stroke-width="0.52" stroke-miterlimit="10" stroke-linecap="round"/>
<path d="M26.5502 51.4715L30.4383 26.3184C30.5723 25.4632 31.6784 25.3257 31.9652 26.1288C33.98 31.7543 37.3952 44.8979 29.064 52.9216L26.5502 51.4715Z" fill="#B7D331"/>
<path d="M24.8109 57.3501L1.13595 66.7904C0.331519 67.1101 -0.350017 66.229 0.197446 65.5746C4.02596 60.9827 13.6271 51.3639 24.7849 54.4499L24.8109 57.3501Z" fill="#B7D331"/>
<path d="M31.2017 55.5317L50.9886 71.5792C51.6627 72.1257 51.2232 73.1482 50.3816 72.992C44.501 71.8878 31.4103 68.1994 28.6767 56.9707L31.2017 55.5355V55.5317Z" fill="#B7D331"/>
<path d="M29.0694 55.431L24.9901 55.8081L29.1812 100.998L33.2604 100.621L29.0694 55.431Z" fill="#B7D331"/>
<path d="M30.8856 56.8977C31.7048 54.6321 30.5293 52.1325 28.26 51.3146C25.9907 50.4967 23.4869 51.6703 22.6676 53.9359C21.8484 56.2015 23.0239 58.7011 25.2932 59.519C27.5626 60.3369 30.0663 59.1633 30.8856 56.8977Z" fill="#AABC02"/>
<path d="M29.82 56.5841C29.1758 58.2609 27.2876 59.1012 25.6079 58.458C23.9283 57.8148 23.0866 55.9297 23.7309 54.2528C24.3752 52.5759 26.2634 51.7356 27.943 52.3789C29.6227 53.0221 30.4643 54.9072 29.82 56.5841Z" fill="white"/>
<path opacity="0.25" d="M14.7257 60.0938L8.29019 62.7411" stroke="#89960B" stroke-width="0.67" stroke-miterlimit="10" stroke-linecap="round"/>
<path opacity="0.25" d="M21.4293 57.3389L17.1501 59.0975" stroke="#89960B" stroke-width="0.67" stroke-miterlimit="10" stroke-linecap="round"/>
<path opacity="0.25" d="M35.3244 60.7408L32.2258 58.3018" stroke="#89960B" stroke-width="0.67" stroke-miterlimit="10" stroke-linecap="round"/>
<path opacity="0.25" d="M42.3447 66.2695L36.8775 61.9639" stroke="#89960B" stroke-width="0.67" stroke-miterlimit="10" stroke-linecap="round"/>
<path opacity="0.25" d="M48.0353 70.7536L44.4041 67.8906" stroke="#89960B" stroke-width="0.67" stroke-miterlimit="10" stroke-linecap="round"/>
<path opacity="0.25" d="M29.1646 41.3359L28.092 48.2033" stroke="#89960B" stroke-width="0.67" stroke-miterlimit="10" stroke-linecap="round"/>
<path opacity="0.25" d="M30.2819 34.186L29.5668 38.7519" stroke="#89960B" stroke-width="0.67" stroke-miterlimit="10" stroke-linecap="round"/>
<path opacity="0.25" d="M24.4237 54.5314C24.9302 53.2189 26.405 52.5608 27.7196 53.0664" stroke="#89960B" stroke-width="0.52" stroke-miterlimit="10" stroke-linecap="round"/>
<path opacity="0.25" d="M29.1869 56.3574C28.6804 57.6699 27.2056 58.328 25.8909 57.8224" stroke="#89960B" stroke-width="0.52" stroke-miterlimit="10" stroke-linecap="round"/>
</svg>
