<svg width="24" height="20" viewBox="0 0 24 20" fill="none" xmlns="http://www.w3.org/2000/svg">
<path d="M15 5H12V4C12 2.93913 11.5786 1.92172 10.8284 1.17157C10.0783 0.421427 9.06087 0 8 0C6.93913 0 5.92172 0.421427 5.17157 1.17157C4.42143 1.92172 4 2.93913 4 4V5H1C0.734784 5 0.48043 5.10536 0.292893 5.29289C0.105357 5.48043 0 5.73478 0 6V17C0 17.7956 0.316071 18.5587 0.87868 19.1213C1.44129 19.6839 2.20435 20 3 20H13C13.7956 20 14.5587 19.6839 15.1213 19.1213C15.6839 18.5587 16 17.7956 16 17V6C16 5.73478 15.8946 5.48043 15.7071 5.29289C15.5196 5.10536 15.2652 5 15 5ZM6 4C6 3.46957 6.21071 2.96086 6.58579 2.58579C6.96086 2.21071 7.46957 2 8 2C8.53043 2 9.03914 2.21071 9.41421 2.58579C9.78929 2.96086 10 3.46957 10 4V5H6V4ZM14 17C14 17.2652 13.8946 17.5196 13.7071 17.7071C13.5196 17.8946 13.2652 18 13 18H3C2.73478 18 2.48043 17.8946 2.29289 17.7071C2.10536 17.5196 2 17.2652 2 17V7H4V8C4 8.26522 4.10536 8.51957 4.29289 8.70711C4.48043 8.89464 4.73478 9 5 9C5.26522 9 5.51957 8.89464 5.70711 8.70711C5.89464 8.51957 6 8.26522 6 8V7H10V8C10 8.26522 10.1054 8.51957 10.2929 8.70711C10.4804 8.89464 10.7348 9 11 9C11.2652 9 11.5196 8.89464 11.7071 8.70711C11.8946 8.51957 12 8.26522 12 8V7H14V17Z" fill="black"/>
<circle cx="19" cy="5" r="5" fill="#F10000"/>
<path d="M20.451 6.3525C20.5257 6.3525 20.584 6.37467 20.626 6.419C20.668 6.461 20.689 6.517 20.689 6.587V7H17.315V6.7655C17.315 6.71883 17.3243 6.66983 17.343 6.6185C17.3617 6.56483 17.3932 6.517 17.4375 6.475L19.0265 4.8825C19.1595 4.7495 19.2797 4.62117 19.387 4.4975C19.4943 4.37383 19.5853 4.25133 19.66 4.13C19.7347 4.00633 19.7918 3.88033 19.8315 3.752C19.8735 3.62367 19.8945 3.48833 19.8945 3.346C19.8945 3.206 19.8723 3.0835 19.828 2.9785C19.7837 2.87117 19.723 2.7825 19.646 2.7125C19.569 2.6425 19.478 2.59 19.373 2.555C19.268 2.52 19.1548 2.5025 19.0335 2.5025C18.9122 2.5025 18.8002 2.52 18.6975 2.555C18.5972 2.59 18.5073 2.639 18.428 2.702C18.3487 2.765 18.2822 2.83967 18.2285 2.926C18.1748 3.01233 18.1363 3.10567 18.113 3.206C18.0803 3.29467 18.0383 3.35417 17.987 3.3845C17.938 3.41483 17.8657 3.42183 17.77 3.4055L17.413 3.3425C17.4457 3.10917 17.5098 2.90383 17.6055 2.7265C17.7012 2.54917 17.8213 2.401 17.966 2.282C18.1107 2.16067 18.2763 2.06967 18.463 2.009C18.652 1.94833 18.855 1.918 19.072 1.918C19.2913 1.918 19.4932 1.95067 19.6775 2.016C19.8642 2.079 20.0252 2.17117 20.1605 2.2925C20.2958 2.41383 20.402 2.562 20.479 2.737C20.556 2.90967 20.5945 3.10567 20.5945 3.325C20.5945 3.51167 20.5665 3.6855 20.5105 3.8465C20.4568 4.00517 20.3822 4.15683 20.2865 4.3015C20.1932 4.44617 20.0835 4.58733 19.9575 4.725C19.8338 4.86033 19.702 4.998 19.562 5.138L18.288 6.44C18.386 6.41433 18.484 6.39333 18.582 6.377C18.6823 6.36067 18.7768 6.3525 18.8655 6.3525H20.451Z" fill="white"/>
</svg>
