<svg width="20" height="20" viewBox="0 0 20 20" fill="none" xmlns="http://www.w3.org/2000/svg">
<path d="M11.0282 0.00123035C11.7579 -0.00156977 12.4876 0.00576409 13.2171 0.0232297L13.4111 0.0302294C13.6351 0.0382291 13.8561 0.0482288 14.1231 0.0602284C15.1871 0.110227 15.913 0.278221 16.55 0.525213C17.21 0.779204 17.766 1.12319 18.322 1.67917C18.8303 2.17876 19.2237 2.78308 19.4749 3.45011C19.7219 4.08709 19.8899 4.81407 19.9399 5.87803C19.9519 6.14402 19.9619 6.36601 19.9699 6.59001L19.9759 6.784C19.9937 7.51317 20.0013 8.24255 19.9989 8.97193L19.9999 9.7179V11.0279C20.0024 11.7576 19.9947 12.4873 19.9769 13.2168L19.9709 13.4108C19.9629 13.6348 19.9529 13.8558 19.9409 14.1227C19.8909 15.1867 19.7209 15.9127 19.4749 16.5497C19.2246 17.2174 18.831 17.8222 18.322 18.3216C17.8219 18.8299 17.2173 19.2233 16.55 19.4746C15.913 19.7216 15.1871 19.8896 14.1231 19.9396C13.8561 19.9516 13.6351 19.9615 13.4111 19.9696L13.2171 19.9756C12.4876 19.9933 11.7579 20.001 11.0282 19.9986L10.2822 19.9995H8.97327C8.24356 20.002 7.51385 19.9943 6.78435 19.9766L6.59035 19.9706C6.35297 19.9619 6.11564 19.9519 5.87838 19.9406C4.81441 19.8906 4.08844 19.7206 3.45046 19.4746C2.78317 19.2239 2.17874 18.8304 1.67952 18.3216C1.17058 17.8219 0.776775 17.2172 0.525559 16.5497C0.278568 15.9127 0.110573 15.1867 0.0605749 14.1227C0.0494382 13.8855 0.0394384 13.6481 0.0305759 13.4108L0.0255762 13.2168C0.00714044 12.4873 -0.00119351 11.7576 0.000576981 11.0279V8.97193C-0.00221389 8.24255 0.00511997 7.51317 0.0225763 6.784L0.029576 6.59001C0.0375758 6.36601 0.0475754 6.14402 0.059575 5.87803C0.109573 4.81307 0.277567 4.08809 0.524559 3.45011C0.775923 2.78276 1.1705 2.1786 1.68052 1.68017C2.1794 1.17094 2.78344 0.776777 3.45046 0.525213C4.08844 0.278221 4.81341 0.110227 5.87838 0.0602284L6.59035 0.0302294L6.78435 0.0252297C7.5135 0.00680315 8.24288 -0.0015308 8.97227 0.00023046L11.0282 0.00123035ZM10.0002 5.00106C9.33777 4.99169 8.68004 5.11408 8.06528 5.36112C7.45052 5.60815 6.89099 5.97491 6.4192 6.44007C5.94742 6.90523 5.57279 7.45951 5.31708 8.07072C5.06138 8.68192 4.9297 9.33785 4.9297 10.0004C4.9297 10.6629 5.06138 11.3189 5.31708 11.9301C5.57279 12.5413 5.94742 13.0956 6.4192 13.5607C6.89099 14.0259 7.45052 14.3926 8.06528 14.6397C8.68004 14.8867 9.33777 15.0091 10.0002 14.9997C11.3263 14.9997 12.598 14.473 13.5357 13.5353C14.4733 12.5977 15.0001 11.3259 15.0001 9.99989C15.0001 8.67385 14.4733 7.40213 13.5357 6.46448C12.598 5.52683 11.3263 5.00106 10.0002 5.00106ZM10.0002 7.00099C10.3987 6.99365 10.7947 7.06579 11.165 7.21319C11.5353 7.3606 11.8725 7.58031 12.1569 7.85951C12.4414 8.1387 12.6673 8.47177 12.8216 8.83927C12.9758 9.20677 13.0553 9.60132 13.0554 9.99988C13.0555 10.3984 12.9761 10.793 12.822 11.1606C12.6678 11.5281 12.442 11.8613 12.1577 12.1406C11.8733 12.4198 11.5362 12.6397 11.1659 12.7872C10.7957 12.9347 10.3997 13.007 10.0012 12.9998C9.20562 12.9998 8.44258 12.6837 7.87999 12.1211C7.3174 11.5585 7.00134 10.7955 7.00134 9.99989C7.00134 9.20427 7.3174 8.44123 7.87999 7.87864C8.44258 7.31605 9.20562 6.99999 10.0012 6.99999L10.0002 7.00099ZM15.2501 3.50111C14.9275 3.51402 14.6224 3.65126 14.3987 3.88407C14.175 4.11688 14.0501 4.42721 14.0501 4.75007C14.0501 5.07292 14.175 5.38326 14.3987 5.61607C14.6224 5.84888 14.9275 5.98611 15.2501 5.99903C15.5816 5.99903 15.8995 5.86733 16.1339 5.63292C16.3683 5.39851 16.5 5.08058 16.5 4.74907C16.5 4.41756 16.3683 4.09963 16.1339 3.86522C15.8995 3.6308 15.5816 3.49911 15.2501 3.49911V3.50111Z" fill="white"/>
</svg>
