<svg width="93" height="110" viewBox="0 0 93 110" fill="none" xmlns="http://www.w3.org/2000/svg">
<g filter="url(#filter0_d_85_210)">
<path d="M53.4951 8.37197C60.7957 9.87957 67.412 13.9538 72.0491 19.7959C83.9474 34.7946 77.5528 52.6405 71.1793 61.5106C63.6804 71.947 45.2954 77.4107 38.6869 78.5533C32.0839 79.6956 31.3118 83.5618 31.3118 83.5618L23.1041 78.5068L14.8965 73.4519C14.8965 73.4519 18.0014 71.0212 16.0489 64.6118C14.0962 58.197 10.6987 39.3175 16.6407 27.9259C21.691 18.2421 34.7473 4.49545 53.4951 8.37197Z" fill="#F3FFB1"/>
<path d="M31.3118 83.5617L25.6552 92.7448C23.2491 96.6518 18.1498 97.8872 14.2711 95.496L11.8984 94.0351C8.01972 91.644 6.8228 86.5425 9.22864 82.63L14.8852 73.447L31.3118 83.5617Z" fill="#B1D000"/>
<path d="M11.1222 78.3797L29.3128 88.2694C29.7292 88.4958 30.2503 88.3418 30.4766 87.9254L30.8629 87.215C31.0892 86.7986 30.9352 86.2776 30.5188 86.0512L12.3282 76.1615C11.9119 75.9351 11.3908 76.0891 11.1645 76.5055L10.7782 77.2159C10.5518 77.6323 10.7059 78.1533 11.1222 78.3797Z" fill="#5B9739"/>
<path d="M8.72424 82.9792L26.1706 92.4643C26.587 92.6907 27.108 92.5366 27.3344 92.1203L27.7206 91.4098C27.947 90.9935 27.793 90.4724 27.3766 90.246L9.93024 80.7609C9.51386 80.5346 8.99282 80.6886 8.76644 81.105L8.38021 81.8154C8.15384 82.2318 8.30786 82.7528 8.72424 82.9792Z" fill="#5B9739"/>
<path d="M7.02417 87.7054L23.1463 96.4706C23.5627 96.697 24.0838 96.543 24.3101 96.1266L24.6964 95.4162C24.9227 94.9998 24.7687 94.4787 24.3523 94.2524L8.23017 85.4872C7.8138 85.2608 7.29275 85.4148 7.06638 85.8312L6.68014 86.5416C6.45377 86.958 6.6078 87.4791 7.02417 87.7054Z" fill="#5B9739"/>
<path d="M28.0713 59.258C26.1012 54.2214 20.808 36.5266 38.0222 24.6433C38.6698 24.1998 39.558 24.4206 39.9002 25.1289C42.2915 30.01 49.1875 47.7978 29.9395 59.8652C29.2581 60.2941 28.3552 60.008 28.0658 59.2583L28.0713 59.258Z" fill="#B1D000"/>
<path d="M23.1041 78.5068C23.1041 78.5068 27.4776 67.9404 29.056 59.0327L38.8687 26.1005" stroke="#5B9739" stroke-width="0.5" stroke-miterlimit="10" stroke-linecap="round"/>
<path d="M40.0089 32.2684C40.0089 32.2684 36.0449 37.1927 34.7827 39.7693" stroke="#5B9739" stroke-width="0.5" stroke-miterlimit="10" stroke-linecap="round"/>
<path d="M31.4912 35.0482C31.4912 35.0482 34.071 40.3486 33.019 45.6296" stroke="#5B9739" stroke-width="0.5" stroke-miterlimit="10" stroke-linecap="round"/>
<path d="M40.2924 44.4557C40.2924 44.4557 34.2 46.2639 31.5237 50.8636" stroke="#5B9739" stroke-width="0.5" stroke-miterlimit="10" stroke-linecap="round"/>
<path d="M28.5521 44.4555C28.5521 44.4555 31.1318 49.7559 30.0799 55.0369" stroke="#5B9739" stroke-width="0.5" stroke-miterlimit="10" stroke-linecap="round"/>
<path d="M31.4609 62.767C34.1579 59.9347 44.1504 51.0516 57.2018 58.7143C57.6914 59.0012 57.8158 59.6554 57.4599 60.0938C54.9905 63.156 45.4321 73.1114 31.6382 64.1786C31.1525 63.8639 31.0599 63.1859 31.4606 62.7616L31.4609 62.767Z" fill="#B1D000"/>
<path d="M56.5022 59.7116L31.906 63.3429C31.906 63.3429 29.2821 63.5157 25.5694 71.9851" stroke="#5B9739" stroke-width="0.5" stroke-miterlimit="10" stroke-linecap="round"/>
<path d="M52.8081 62.3457C52.8081 62.3457 48.3677 61.2527 46.294 61.2133" stroke="#5B9739" stroke-width="0.5" stroke-miterlimit="10" stroke-linecap="round"/>
<path d="M48.3806 57.6049C48.3806 57.6049 45.6936 60.9159 41.9104 61.8416" stroke="#5B9739" stroke-width="0.5" stroke-miterlimit="10" stroke-linecap="round"/>
<path d="M44.9037 66.2541C44.9037 66.2541 41.8537 62.8088 38.0222 62.4645" stroke="#5B9739" stroke-width="0.5" stroke-miterlimit="10" stroke-linecap="round"/>
<path d="M41.3154 58.5579C41.3154 58.5579 38.6284 61.869 34.8452 62.7946" stroke="#5B9739" stroke-width="0.5" stroke-miterlimit="10" stroke-linecap="round"/>
<path d="M68.3067 55.6975C66.7638 57.9811 64.7815 60.2891 62.2698 62.5877" stroke="#5B9739" stroke-width="0.5" stroke-miterlimit="10" stroke-linecap="round"/>
<path d="M72.6353 45.5137C72.1429 48.0642 71.2212 50.7211 69.7072 53.4274" stroke="#5B9739" stroke-width="0.5" stroke-miterlimit="10" stroke-linecap="round"/>
<path d="M68.2703 24.5832C68.2703 24.5832 73.0101 29.7916 73.0826 40.6573" stroke="#5B9739" stroke-width="0.5" stroke-miterlimit="10" stroke-linecap="round"/>
<path d="M66.8748 32.715C67.6566 35.3933 67.9874 38.4822 67.4966 41.9582" stroke="#5B9739" stroke-width="0.5" stroke-miterlimit="10" stroke-linecap="round"/>
<path d="M58.3098 20.4077C58.3098 20.4077 61.8391 22.8567 64.573 27.4599" stroke="#5B9739" stroke-width="0.5" stroke-miterlimit="10" stroke-linecap="round"/>
</g>
<defs>
<filter id="filter0_d_85_210" x="0.57576" y="0.700195" width="92.1454" height="109.015" filterUnits="userSpaceOnUse" color-interpolation-filters="sRGB">
<feFlood flood-opacity="0" result="BackgroundImageFix"/>
<feColorMatrix in="SourceAlpha" type="matrix" values="0 0 0 0 0 0 0 0 0 0 0 0 0 0 0 0 0 0 127 0" result="hardAlpha"/>
<feOffset dx="4" dy="3"/>
<feGaussianBlur stdDeviation="5"/>
<feComposite in2="hardAlpha" operator="out"/>
<feColorMatrix type="matrix" values="0 0 0 0 0 0 0 0 0 0 0 0 0 0 0 0 0 0 0.25 0"/>
<feBlend mode="normal" in2="BackgroundImageFix" result="effect1_dropShadow_85_210"/>
<feBlend mode="normal" in="SourceGraphic" in2="effect1_dropShadow_85_210" result="shape"/>
</filter>
</defs>
</svg>
