<svg width="20" height="20" viewBox="0 0 20 20" fill="none" xmlns="http://www.w3.org/2000/svg">
<path d="M15.3129 0H4.68787C2.09903 0 0.000366211 2.09867 0.000366211 4.6875V15.3125C0.000366211 17.9013 2.09903 20 4.68787 20H15.3129C17.9017 20 20.0004 17.9013 20.0004 15.3125V4.6875C20.0004 2.09867 17.9017 0 15.3129 0Z" fill="#333333"/>
<path d="M15.3129 0H4.68787C2.09903 0 0.000366211 2.09867 0.000366211 4.6875V15.3125C0.000366211 17.9013 2.09903 20 4.68787 20H15.3129C17.9017 20 20.0004 17.9013 20.0004 15.3125V4.6875C20.0004 2.09867 17.9017 0 15.3129 0Z" fill="white"/>
<path d="M14.4313 17.0066H16.718C16.8009 17.0066 16.8803 16.9737 16.9389 16.9151C16.9975 16.8566 17.0305 16.7771 17.0305 16.6942L17.0317 11.8628C17.0317 9.33758 16.4875 7.39656 13.5365 7.39656C12.4147 7.35484 11.3568 7.93313 10.786 8.89875C10.7832 8.90344 10.7789 8.90709 10.7739 8.90914C10.7688 8.91119 10.7632 8.91153 10.7579 8.9101C10.7527 8.90867 10.748 8.90556 10.7447 8.90124C10.7413 8.89692 10.7395 8.89163 10.7395 8.88617V7.94219C10.7395 7.85931 10.7066 7.77982 10.6479 7.72122C10.5893 7.66261 10.5099 7.62969 10.427 7.62969H8.2569C8.17402 7.62969 8.09453 7.66261 8.03593 7.72122C7.97732 7.77982 7.9444 7.85931 7.9444 7.94219V16.6937C7.9444 16.7766 7.97732 16.8561 8.03593 16.9147C8.09453 16.9733 8.17402 17.0062 8.2569 17.0062H10.5435C10.6263 17.0062 10.7058 16.9733 10.7644 16.9147C10.823 16.8561 10.856 16.7766 10.856 16.6937V12.3677C10.856 11.1445 11.088 9.95992 12.6045 9.95992C14.0994 9.95992 14.1188 11.3596 14.1188 12.447V16.6941C14.1188 16.777 14.1517 16.8565 14.2103 16.9151C14.2689 16.9737 14.3484 17.0066 14.4313 17.0066ZM2.96916 4.65836C2.96916 5.58531 3.73221 6.34797 4.65916 6.34797C5.58588 6.34789 6.34846 5.58477 6.34846 4.65805C6.3483 3.73133 5.58565 2.96875 4.65885 2.96875C3.73182 2.96875 2.96916 3.73148 2.96916 4.65836ZM3.51283 17.0066H5.80244C5.88532 17.0066 5.96481 16.9737 6.02341 16.9151C6.08202 16.8565 6.11494 16.777 6.11494 16.6941V7.94219C6.11494 7.85931 6.08202 7.77982 6.02341 7.72122C5.96481 7.66261 5.88532 7.62969 5.80244 7.62969H3.51283C3.42995 7.62969 3.35047 7.66261 3.29186 7.72122C3.23326 7.77982 3.20033 7.85931 3.20033 7.94219V16.6941C3.20033 16.777 3.23326 16.8565 3.29186 16.9151C3.35047 16.9737 3.42995 17.0066 3.51283 17.0066Z" fill="#333333"/>
</svg>
