<svg width="25" height="20" viewBox="0 0 25 20" fill="none" xmlns="http://www.w3.org/2000/svg">
<path fill-rule="evenodd" clip-rule="evenodd" d="M3.75 20C2.75544 20 1.80161 19.6049 1.09835 18.9017C0.395088 18.1984 0 17.2446 0 16.25V3.75C0 2.75544 0.395088 1.80161 1.09835 1.09835C1.80161 0.395088 2.75544 0 3.75 0H21.25C22.2446 0 23.1984 0.395088 23.9017 1.09835C24.6049 1.80161 25 2.75544 25 3.75V16.25C25 17.2446 24.6049 18.1984 23.9017 18.9017C23.1984 19.6049 22.2446 20 21.25 20H3.75ZM7.03125 5.275C6.90392 5.16627 6.75604 5.08423 6.59639 5.03375C6.43675 4.98327 6.26858 4.96538 6.10189 4.98114C5.93519 4.9969 5.77337 5.04599 5.62601 5.12549C5.47865 5.205 5.34876 5.3133 5.24406 5.44396C5.13937 5.57463 5.06198 5.725 5.01651 5.88614C4.97105 6.04729 4.95841 6.21592 4.97937 6.38205C5.00033 6.54817 5.05445 6.70838 5.13851 6.85319C5.22258 6.99799 5.33488 7.12443 5.46875 7.225L10.1562 10.9762C10.8214 11.5088 11.648 11.7989 12.5 11.7989C13.352 11.7989 14.1786 11.5088 14.8438 10.9762L19.5312 7.22625C19.6595 7.12365 19.7662 6.99681 19.8454 6.85297C19.9246 6.70912 19.9746 6.55108 19.9927 6.38789C20.0108 6.22469 19.9966 6.05952 19.9509 5.90181C19.9052 5.74411 19.8288 5.59695 19.7262 5.46875C19.6237 5.34055 19.4968 5.23381 19.353 5.15462C19.2091 5.07544 19.0511 5.02537 18.8879 5.00726C18.7247 4.98915 18.5595 5.00337 18.4018 5.04909C18.2441 5.09482 18.097 5.17115 17.9688 5.27375L13.2812 9.02375C13.0595 9.20125 12.784 9.29797 12.5 9.29797C12.216 9.29797 11.9405 9.20125 11.7188 9.02375L7.03125 5.27375V5.275Z" fill="white"/>
</svg>
