<svg width="20" height="20" viewBox="0 0 20 20" fill="none" xmlns="http://www.w3.org/2000/svg">
<path d="M18.9 13.7556C17.5333 13.7556 16.2111 13.5333 14.9778 13.1333C14.7846 13.0678 14.5768 13.0581 14.3783 13.1053C14.1798 13.1524 13.9987 13.2546 13.8556 13.4L12.1111 15.5889C8.96667 14.0889 6.02222 11.2556 4.45556 8L6.62222 6.15556C6.92222 5.84444 7.01111 5.41111 6.88889 5.02222C6.47778 3.78889 6.26667 2.46667 6.26667 1.1C6.26667 0.5 5.76667 0 5.16667 0H1.32222C0.722222 0 0 0.266667 0 1.1C0 11.4222 8.58889 20 18.9 20C19.6889 20 20 19.3 20 18.6889V14.8556C20 14.2556 19.5 13.7556 18.9 13.7556Z" fill="white"/>
</svg>
