<svg width="24" height="24" viewBox="0 0 24 24" fill="none" xmlns="http://www.w3.org/2000/svg">
<path d="M9.50352 0.649683C9.25084 0.69982 9.02849 0.8476 8.88528 1.06058C8.74208 1.27356 8.68973 1.53434 8.73971 1.78567C8.7897 2.03699 8.93794 2.25833 9.1519 2.40108C9.36586 2.54384 9.62805 2.59634 9.8809 2.54708C11.1356 2.30567 12.4253 2.30567 13.68 2.54708C13.9276 2.58457 14.1803 2.52562 14.3853 2.3825C14.5903 2.23939 14.7319 2.02314 14.7805 1.77882C14.8292 1.5345 14.7811 1.28094 14.6464 1.07095C14.5117 0.860973 14.3007 0.710763 14.0574 0.651617C12.5534 0.36157 11.0075 0.359636 9.50352 0.649683ZM18.265 2.38461C18.0509 2.2553 17.7949 2.2131 17.5503 2.26681C17.3057 2.32052 17.0913 2.46598 16.9519 2.67291C16.8125 2.87984 16.7588 3.13226 16.8019 3.37761C16.845 3.62295 16.9817 3.8423 17.1834 3.98995C18.2451 4.6974 19.1571 5.60484 19.8679 6.661C20.0133 6.86926 20.2353 7.01238 20.4859 7.05953C20.7364 7.10667 20.9956 7.05408 21.2076 6.91308C21.4195 6.77207 21.5673 6.55393 21.6191 6.30565C21.6709 6.05736 21.6225 5.79879 21.4844 5.58562C20.6318 4.31982 19.538 3.23235 18.265 2.38461ZM6.37555 3.98995C6.48781 3.92214 6.5851 3.83242 6.66154 3.72621C6.73798 3.62 6.792 3.49949 6.82032 3.37196C6.84865 3.24443 6.8507 3.11251 6.82635 2.98417C6.802 2.85582 6.75176 2.73372 6.67865 2.62521C6.60555 2.5167 6.51109 2.42404 6.40099 2.35281C6.29088 2.28159 6.16741 2.23328 6.03801 2.21079C5.90862 2.18831 5.77598 2.19212 5.6481 2.22199C5.52023 2.25187 5.39977 2.30718 5.29398 2.38461C4.02088 3.23231 2.92715 4.31979 2.07458 5.58562C2.0009 5.69109 1.94909 5.81009 1.92216 5.93568C1.89524 6.06127 1.89374 6.19094 1.91775 6.31712C1.94176 6.44329 1.99081 6.56345 2.06203 6.67057C2.13325 6.7777 2.22521 6.86965 2.33255 6.94106C2.4399 7.01247 2.56047 7.0619 2.68723 7.08649C2.81399 7.11107 2.94441 7.1103 3.07088 7.08423C3.19734 7.05816 3.31731 7.00731 3.4238 6.93465C3.53028 6.86198 3.62115 6.76896 3.69109 6.661C4.40207 5.60557 5.31405 4.69687 6.37555 3.98995ZM23.2293 9.7711C23.2047 9.64634 23.1556 9.52762 23.0848 9.42173C23.014 9.31585 22.9229 9.22489 22.8168 9.15405C22.7106 9.0832 22.5914 9.03387 22.466 9.00887C22.3406 8.98388 22.2115 8.98371 22.0861 9.00837C21.9607 9.03304 21.8413 9.08205 21.735 9.15262C21.6286 9.22318 21.5373 9.3139 21.4662 9.4196C21.3951 9.52529 21.3457 9.64388 21.3208 9.76858C21.2959 9.89328 21.2959 10.0216 21.321 10.1463C21.5641 11.3648 21.5641 12.7033 21.321 13.9218C21.2714 14.1732 21.3242 14.4339 21.4678 14.6466C21.6114 14.8593 21.834 15.0067 22.0868 15.0564C22.3395 15.1061 22.6018 15.0541 22.816 14.9117C23.0302 14.7693 23.1788 14.5482 23.2293 14.297C23.5211 12.8023 23.5211 11.2658 23.2293 9.7711ZM2.23992 10.1463C2.28997 9.89446 2.23733 9.63314 2.0936 9.41986C1.94987 9.20658 1.72681 9.05881 1.47349 9.00905C1.34806 8.98441 1.21898 8.98458 1.09362 9.00954C0.968257 9.03451 0.849067 9.08378 0.742854 9.15454C0.528347 9.29745 0.379725 9.51924 0.329681 9.7711C0.0382184 11.2658 0.0382184 12.8023 0.329681 14.297C0.35427 14.4218 0.403361 14.5405 0.474145 14.6464C0.544929 14.7522 0.636016 14.8432 0.742195 14.9141C0.848374 14.9849 0.96756 15.0342 1.09293 15.0592C1.21831 15.0842 1.34741 15.0844 1.47285 15.0597C1.59829 15.0351 1.7176 14.986 1.82397 14.9155C1.93034 14.8449 2.02167 14.7542 2.09274 14.6485C2.1638 14.5428 2.21321 14.4242 2.23813 14.2995C2.26306 14.1748 2.263 14.0465 2.23798 13.9218C1.99544 12.6748 1.99738 11.3933 2.23992 10.1463ZM21.4844 18.4825C21.6144 18.2696 21.6569 18.0151 21.6028 17.7719C21.5488 17.5287 21.4025 17.3156 21.1944 17.1769C20.9863 17.0383 20.7324 16.9849 20.4857 17.0278C20.2389 17.0706 20.0183 17.2065 19.8698 17.4071C19.1583 18.4627 18.2456 19.3695 17.1834 20.0762C16.9739 20.2209 16.83 20.4415 16.7826 20.6907C16.7352 20.9398 16.7881 21.1975 16.9299 21.4083C17.0717 21.619 17.2911 21.7659 17.5408 21.8174C17.7905 21.8689 18.0506 21.8208 18.265 21.6835C19.5381 20.8358 20.6318 19.7483 21.4844 18.4825ZM3.69109 17.4071C3.62289 17.2955 3.53266 17.1987 3.42584 17.1227C3.31901 17.0467 3.19781 16.993 3.06955 16.9649C2.94128 16.9367 2.80861 16.9347 2.67953 16.9589C2.55045 16.9831 2.42764 17.033 2.3185 17.1057C2.20937 17.1784 2.11618 17.2723 2.04454 17.3818C1.97291 17.4913 1.92432 17.614 1.90171 17.7427C1.87909 17.8714 1.88293 18.0032 1.91297 18.1304C1.94302 18.2575 1.99865 18.3773 2.07652 18.4825C2.92852 19.7481 4.02158 20.8356 5.29398 21.6835C5.39977 21.7609 5.52023 21.8162 5.6481 21.8461C5.77598 21.876 5.90862 21.8798 6.03801 21.8573C6.16741 21.8348 6.29088 21.7865 6.40099 21.7153C6.51109 21.6441 6.60555 21.5514 6.67865 21.4429C6.75176 21.3344 6.802 21.2123 6.82635 21.0839C6.8507 20.9556 6.84865 20.8237 6.82032 20.6961C6.792 20.5686 6.73798 20.4481 6.66154 20.3419C6.5851 20.2357 6.48781 20.146 6.37555 20.0782C5.3139 19.3706 4.40191 18.4632 3.69109 17.4071ZM9.8809 21.521C9.63326 21.4835 9.38062 21.5425 9.17561 21.6856C8.9706 21.8287 8.82903 22.045 8.78038 22.2893C8.73174 22.5336 8.77977 22.7872 8.91448 22.9971C9.0492 23.2071 9.26019 23.3573 9.50352 23.4165C11.0068 23.7066 12.5522 23.7066 14.0554 23.4165C14.1857 23.3974 14.3108 23.3523 14.423 23.2838C14.5352 23.2152 14.6323 23.1247 14.7083 23.0178C14.7843 22.9109 14.8377 22.7897 14.8652 22.6616C14.8927 22.5336 14.8937 22.4013 14.8683 22.2728C14.8428 22.1444 14.7914 22.0223 14.7171 21.9142C14.6428 21.8061 14.5472 21.7141 14.4361 21.6438C14.325 21.5735 14.2007 21.5264 14.0707 21.5053C13.9408 21.4842 13.8078 21.4895 13.68 21.521C12.4253 21.7624 11.1356 21.7624 9.8809 21.521ZM16.4481 15.5155C16.5249 15.4139 16.5807 15.2983 16.6126 15.1752C16.6444 15.0521 16.6515 14.924 16.6335 14.7982C16.6156 14.6724 16.5728 14.5513 16.5078 14.442C16.4428 14.3326 16.3567 14.237 16.2545 14.1606C16.1524 14.0843 16.0361 14.0287 15.9123 13.9971C15.7885 13.9655 15.6597 13.9584 15.5331 13.9763C15.4066 13.9941 15.2848 14.0366 15.1748 14.1013C15.0648 14.1659 14.9687 14.2515 14.8919 14.3531C14.1819 15.295 13.0517 15.9004 11.7795 15.9004C11.1754 15.901 10.5795 15.7614 10.0392 15.4928C9.49885 15.2242 9.02903 14.834 8.66706 14.3531C8.51229 14.1479 8.28187 14.0123 8.02651 13.976C7.77114 13.9397 7.51174 14.0058 7.30538 14.1597C7.09901 14.3136 6.96258 14.5427 6.9261 14.7966C6.88962 15.0505 6.95608 15.3084 7.11085 15.5136C7.65381 16.235 8.35851 16.8206 9.16894 17.2239C9.97938 17.6271 10.8732 17.8369 11.7795 17.8365C13.6897 17.8365 15.384 16.9236 16.4481 15.5155ZM9.83422 9.61637C9.83422 9.80687 9.79648 9.9955 9.72316 10.1715C9.64984 10.3475 9.54238 10.5074 9.4069 10.6421C9.27143 10.7768 9.11059 10.8837 8.93359 10.9566C8.75658 11.0295 8.56686 11.067 8.37527 11.067C8.18368 11.067 7.99397 11.0295 7.81696 10.9566C7.63995 10.8837 7.47912 10.7768 7.34364 10.6421C7.20817 10.5074 7.1007 10.3475 7.02738 10.1715C6.95406 9.9955 6.91633 9.80687 6.91633 9.61637C6.91633 9.23165 7.07004 8.86268 7.34364 8.59064C7.61725 8.3186 7.98834 8.16576 8.37527 8.16576C8.76221 8.16576 9.1333 8.3186 9.4069 8.59064C9.68051 8.86268 9.83422 9.23165 9.83422 9.61637ZM15.1837 11.067C15.5706 11.067 15.9417 10.9141 16.2153 10.6421C16.4889 10.3701 16.6426 10.0011 16.6426 9.61637C16.6426 9.23165 16.4889 8.86268 16.2153 8.59064C15.9417 8.3186 15.5706 8.16576 15.1837 8.16576C14.7967 8.16576 14.4257 8.3186 14.152 8.59064C13.8784 8.86268 13.7247 9.23165 13.7247 9.61637C13.7247 10.0011 13.8784 10.3701 14.152 10.6421C14.4257 10.9141 14.7967 11.067 15.1837 11.067Z" fill="#55B76B"/>
</svg>
