<svg width="149" height="24" viewBox="0 0 149 24" fill="none" xmlns="http://www.w3.org/2000/svg">
<path d="M23.9166 9.31408H15.011L12.2499 0.434082L9.48881 9.31408H0.583252L7.7777 14.7941L5.05547 23.6341L12.2499 18.1541L19.4444 23.6341L16.6833 14.7541L23.9166 9.31408Z" fill="#FFCE31"/>
<path d="M55.0278 9.31408H46.1223L43.3612 0.434082L40.6 9.31408H31.6945L38.8889 14.7941L36.1667 23.6341L43.3612 18.1541L50.5556 23.6341L47.7945 14.7541L55.0278 9.31408Z" fill="#FFCE31"/>
<path d="M86.1388 9.31408H77.2332L74.4721 0.434082L71.711 9.31408H62.8055L69.9999 14.7941L67.2777 23.6341L74.4721 18.1541L81.6666 23.6341L78.9055 14.7541L86.1388 9.31408Z" fill="#FFCE31"/>
<path d="M117.25 9.31408H108.344L105.583 0.434082L102.822 9.31408H93.9165L101.111 14.7941L98.3888 23.6341L105.583 18.1541L112.778 23.6341L110.017 14.7541L117.25 9.31408Z" fill="#FFCE31"/>
<path d="M148.361 9.31408H139.455L136.694 0.434082L133.933 9.31408H125.028L132.222 14.7941L129.5 23.6341L136.694 18.1541L143.889 23.6341L141.128 14.7541L148.361 9.31408Z" fill="#FFCE31"/>
</svg>
