<svg width="132" height="132" viewBox="0 0 132 132" fill="none" xmlns="http://www.w3.org/2000/svg">
<g filter="url(#filter0_d_4_106)">
<circle cx="66" cy="66" r="55" fill="white"/>
</g>
<path d="M56.7402 101C55.5698 100.863 54.3977 100.747 53.231 100.586C49.0456 100.01 45.0662 98.8472 41.5152 96.4537C38.387 94.3446 36.154 91.4935 34.6537 88.0628C32.5719 83.3013 31.8975 78.2737 32.0123 73.1222C32.0506 71.4177 32.1946 69.7133 32.3277 68.0107C32.4225 66.7875 32.674 66.4922 33.8863 66.3555C40.5381 65.6081 47.0878 65.867 53.4006 68.4099C59.1081 70.7105 62.8615 74.8539 64.9269 80.6034C65.2021 81.3672 65.4355 82.1456 65.7527 83.1136C65.8803 82.7034 65.9568 82.4628 66.0297 82.2203C67.3441 77.8453 69.4969 74.0099 73.1865 71.1899C76.1889 68.8966 79.6305 67.5878 83.2928 66.8149C87.5784 65.9107 91.9042 65.8086 96.2519 66.2006C96.7951 66.2498 97.3347 66.3373 97.8761 66.3865C98.629 66.4539 99.0282 66.875 99.1102 67.6042C99.225 68.6214 99.3691 69.6404 99.4201 70.6612C99.6425 75.0472 99.4657 79.4058 98.3446 83.6805C97.0594 88.5805 94.8154 92.8935 90.6391 95.9761C87.83 98.0505 84.6763 99.3594 81.2693 100.019C79.3115 100.398 77.3191 100.595 75.343 100.876C75.1425 100.905 74.9474 100.956 74.7487 100.996H69.836C69.1433 100.918 68.4415 100.887 67.7597 100.754C65.6998 100.355 63.68 100.789 61.6493 100.996H56.7365L56.7402 101ZM57.4857 89.9076C57.5404 89.7545 57.5787 89.6961 57.5787 89.6396C57.5823 84.4224 57.586 79.2052 57.5787 73.9899C57.5787 73.8276 57.5222 73.6052 57.4092 73.5104C56.0803 72.3966 54.6256 71.4925 52.9321 70.787V71.5891C52.9321 75.4391 53.0123 79.2909 52.8938 83.1373C52.8446 84.725 53.2183 85.8953 54.4597 86.9107C55.5389 87.793 56.454 88.874 57.4857 89.9094V89.9076ZM73.9066 89.8037C73.9631 89.8183 74.0178 89.8328 74.0743 89.8456C75.4214 88.4912 76.7612 87.1276 78.1248 85.7878C78.442 85.4761 78.5732 85.1644 78.5714 84.7177C78.5568 80.299 78.5623 75.8784 78.5623 71.4597V70.787C77.0274 71.425 75.7076 72.2417 74.4534 73.186C74.0469 73.4922 73.8956 73.8076 73.8974 74.3198C73.9175 79.2636 73.9102 84.2073 73.9102 89.1511V89.8037H73.9066ZM55.9107 91.6685C55.661 91.3951 55.5206 91.2292 55.3693 91.0761C54.1662 89.8675 52.9467 88.6735 51.7618 87.4466C51.43 87.1039 51.0909 86.9854 50.6261 86.9873C46.2639 87.0019 41.8998 86.9964 37.5376 86.9964H36.7738C37.4191 88.544 38.2357 89.8657 39.1818 91.118C39.4826 91.5172 39.7998 91.6849 40.3157 91.6831C45.2467 91.6612 50.1777 91.6703 55.1087 91.6703H55.9126L55.9107 91.6685ZM94.6987 87.0565C94.5292 87.0274 94.4417 87 94.3524 87C89.7623 86.9964 85.1722 86.9909 80.5821 87.011C80.3287 87.011 80.0243 87.186 79.8329 87.3719C78.7391 88.4328 77.6764 89.5266 76.5935 90.5966C76.28 90.9065 75.9282 91.1763 75.4834 91.5573C75.7969 91.6357 75.8571 91.663 75.9191 91.663C81.0998 91.6649 86.2805 91.6685 91.4612 91.6558C91.6599 91.6558 91.9224 91.5573 92.0446 91.4115C93.1292 90.119 94.0042 88.6917 94.7006 87.0565H94.6987ZM64.4238 96.8511C64.4602 96.3607 64.5113 96.0472 64.5021 95.7354C64.4183 93.1433 64.4584 90.5383 64.1995 87.9625C63.8331 84.3131 62.8488 80.8131 60.9365 77.6339C60.6667 77.1855 60.3568 76.7625 60.0232 76.2649C59.9521 76.4381 59.9212 76.4782 59.9212 76.5164C59.9175 81.6644 59.9139 86.8141 59.9212 91.962C59.9212 92.1479 59.985 92.3867 60.1089 92.5125C61.4925 93.9253 62.8925 95.3198 64.4238 96.8529V96.8511ZM67.1818 96.7417C68.4797 95.4401 69.7667 94.1258 71.0829 92.8443C71.4347 92.5016 71.5915 92.1607 71.5896 91.6576C71.5696 86.7831 71.5787 81.9068 71.5787 77.0323V76.3834C71.5058 76.3743 71.4329 76.3651 71.3618 76.356C67.2019 82.543 66.7443 89.5266 67.1836 96.7435L67.1818 96.7417ZM42.3118 94.0365C45.5456 97.2156 57.349 99.7495 62.7047 98.4151C61.3594 97.0716 60.0615 95.7409 58.718 94.4576C58.4592 94.2097 58.0235 94.0219 57.6698 94.0201C52.7826 93.9909 47.8954 94 43.0081 94.0018C42.793 94.0018 42.5779 94.0219 42.3136 94.0347L42.3118 94.0365ZM68.8079 98.3823C68.8407 98.4388 68.8735 98.4935 68.9045 98.55C70.8331 98.55 72.7654 98.6175 74.6904 98.5354C78.2943 98.3841 81.8162 97.7625 85.1704 96.368C86.5868 95.7792 87.9394 95.0774 89.3284 94.0018H88.3987C84.104 94.0018 79.8055 94.0875 75.5144 93.9599C73.8245 93.9089 72.5868 94.33 71.5222 95.6443C70.7165 96.6396 69.7175 97.4763 68.806 98.3841L68.8079 98.3823ZM45.9576 68.7618C45.9576 71.3357 46.0633 73.7547 45.9212 76.1573C45.8264 77.7542 46.2566 78.9136 47.4925 79.9271C48.5699 80.8112 49.4886 81.8867 50.5678 82.9677V69.8172C49.0639 69.4727 47.5654 69.13 45.9576 68.7636V68.7618ZM80.9339 69.8118V82.9659C82.4014 81.493 83.7904 80.1222 85.1394 78.7167C85.3581 78.4888 85.5094 78.0969 85.5149 77.7761C85.5495 75.7946 85.5313 73.8131 85.5313 71.8315V68.7672C83.9362 69.13 82.425 69.4727 80.9321 69.8118H80.9339ZM34.7321 79.9818C35.0803 81.4474 35.4139 82.7654 35.6964 84.0961C35.793 84.5537 36.01 84.6649 36.442 84.6631C40.374 84.6503 44.3079 84.6558 48.2399 84.6521C48.4222 84.6521 48.6045 84.6157 48.9162 84.581C47.3868 83.0589 45.9777 81.637 44.5376 80.2461C44.3571 80.0711 44.0144 79.9946 43.7464 79.9927C41.5863 79.9727 39.4279 79.9818 37.2678 79.9818C36.4766 79.9818 35.6855 79.9818 34.7321 79.9818ZM96.7368 80.0912C96.5618 80.031 96.4998 79.9909 96.4378 79.9909C93.4592 79.9854 90.4805 79.98 87.5019 79.9909C87.3232 79.9909 87.1008 80.0912 86.9714 80.2206C85.5641 81.6133 84.1714 83.0206 82.7769 84.4261C82.7404 84.4625 82.7459 84.5409 82.7204 84.6539C83.5935 84.6539 84.4321 84.6539 85.2706 84.6539C88.5227 84.6539 91.7748 84.6612 95.025 84.6394C95.262 84.6394 95.6631 84.4735 95.7068 84.3094C96.086 82.9131 96.4013 81.4985 96.7349 80.0912H96.7368ZM36.3089 68.4555C38.7571 70.911 41.1816 73.3446 43.5951 75.7672V68.4555H36.3089ZM87.8829 75.7271C90.2909 73.3154 92.7191 70.8836 95.1344 68.4646H87.8829V75.7271ZM34.4587 70.2638V77.5828H41.7485C39.3404 75.1638 36.936 72.7503 34.4587 70.2638ZM89.7422 77.5956H97.043V70.2638C94.5638 72.7539 92.1594 75.1675 89.7422 77.5956Z" fill="#22B573"/>
<path d="M67.1106 31C68.157 31.1896 69.2271 31.2953 70.2461 31.5833C77.6161 33.6596 82.2955 38.4503 83.9617 45.9151C86.1237 55.6094 79.933 65.3018 70.2315 67.7609C60.1909 70.3057 50.0317 64.1497 47.6455 53.8247C46.0633 46.9779 47.9864 40.9786 53.0377 36.0805C56.0747 33.131 59.7789 31.525 63.9916 31.1003C64.1229 31.0875 64.2505 31.0346 64.3817 31C65.2914 31 66.201 31 67.1106 31ZM57.5823 35.6576C57.914 35.6576 58.1273 35.6576 58.3424 35.6576C59.9794 35.6576 61.6164 35.6411 63.2534 35.663C65.1619 35.6885 66.6367 36.9281 66.8481 38.649C67.1125 40.8146 65.6523 42.5828 63.4685 42.632C61.1953 42.6849 58.9203 42.6375 56.6471 42.6575C55.7885 42.6648 55.2562 43.1643 55.2781 43.857C55.2981 44.5333 55.8067 44.9562 56.638 44.9818C57.5239 45.0109 58.4172 44.969 59.2922 45.0729C61.3047 45.3135 62.6554 47.3898 62.1304 49.3513C61.682 51.0338 60.3495 51.9872 58.3843 51.9945C55.7229 52.0055 53.0633 51.9982 50.4018 51.9982C50.163 51.9982 49.9224 51.9982 49.638 51.9982C50.2049 55.5656 51.6815 58.5516 54.1205 61.0544C54.2718 61.2094 54.5471 61.3206 54.7659 61.3206C59.1099 61.3351 63.4521 61.3351 67.7961 61.3279C68.6784 61.3279 69.1997 60.8867 69.2179 60.1867C69.2362 59.4539 68.7075 59.0219 67.7851 59C66.9229 58.9799 66.0497 59.0273 65.2002 58.9107C63.0784 58.619 61.7841 56.4734 62.4385 54.4299C62.9435 52.8513 64.214 52.0036 66.1281 52C71.0846 51.9927 76.0429 51.9982 80.9994 51.9982C81.2656 51.9982 81.5336 51.9982 81.8781 51.9982C81.931 51.1924 81.9802 50.4596 82.033 49.6575C81.0833 49.6575 80.2448 49.6703 79.408 49.6557C77.5323 49.6229 76.5151 48.7297 76.2435 46.8703C76.1705 46.3763 75.9299 46.1484 75.4286 46.163C74.8836 46.1776 74.3349 46.1885 73.7916 46.1539C71.5093 46.0081 69.9963 44.0047 70.5159 41.8336C70.8713 40.3479 72.151 39.2505 73.6932 39.2013C75.1351 39.1557 76.5807 39.1922 78.0974 39.1922C73.5547 33.2932 64.1302 31.432 57.5823 35.6576ZM81.2802 54.3971C81.1708 54.3734 81.1052 54.3443 81.0395 54.3443C75.9901 54.3406 70.9424 54.3388 65.8929 54.3461C65.6523 54.3461 65.388 54.4026 65.1765 54.5138C64.6989 54.7672 64.5367 55.2029 64.6369 55.7279C64.7609 56.3732 65.2294 56.6284 65.8164 56.6575C66.6786 56.6995 67.5463 56.6503 68.4067 56.7068C70.288 56.8307 71.739 58.6154 71.5221 60.4838C71.2961 62.4234 69.8815 63.6539 67.827 63.663C64.6661 63.6758 61.5052 63.6667 58.3442 63.6667C58.1273 63.6667 57.9122 63.6667 57.5859 63.6667C65.9039 68.9568 78.1794 64.8661 81.2783 54.3971H81.2802ZM49.4922 49.6521C52.6294 49.6521 55.6737 49.6667 58.7179 49.6411C59.4635 49.6357 59.8955 49.1526 59.8955 48.4945C59.8955 47.8419 59.4672 47.3862 58.7161 47.3406C57.8557 47.2896 56.988 47.3406 56.1276 47.2786C54.3685 47.1547 53.0304 45.731 52.9448 43.9482C52.8627 42.2565 54.1315 40.6888 55.8268 40.4099C56.206 40.3479 56.5942 40.3224 56.9789 40.3224C59.0935 40.3133 61.2062 40.326 63.3208 40.3115C64.07 40.306 64.5221 39.874 64.5494 39.2177C64.5786 38.5687 64.1448 38.0966 63.4265 38.0018C63.3153 37.9872 63.2005 37.9891 63.0856 37.9891C60.3349 37.9891 57.5841 37.9781 54.8351 38.0055C54.5635 38.0073 54.2281 38.1732 54.033 38.3719C52.6914 39.7245 51.6396 41.2867 50.8721 43.0312C49.957 45.1112 49.4466 47.2805 49.4922 49.6521ZM81.7961 47.3023C81.6375 45.618 80.8718 43.25 80.006 41.85C79.9021 41.6823 79.6286 41.5273 79.4299 41.5237C77.6143 41.5 75.7968 41.5 73.9794 41.5182C73.2539 41.5255 72.769 41.9849 72.738 42.6174C72.7052 43.2628 73.2028 43.7768 73.9502 43.8315C74.3349 43.8607 74.7213 43.8406 75.1078 43.8406C77.2406 43.8424 78.1484 44.6081 78.5731 46.6953C78.6187 46.9232 78.8976 47.2622 79.0872 47.275C79.9841 47.337 80.8882 47.3023 81.7942 47.3023H81.7961Z" fill="black"/>
<path d="M40.0822 47.3752V49.6101H37.8291V47.3752H40.0822Z" fill="black"/>
<path d="M44.7234 49.6138H42.4849V47.3716H44.7234V49.6138Z" fill="black"/>
<path d="M86.7417 49.6138V47.3716H88.9766V49.6138H86.7417Z" fill="black"/>
<path d="M93.6579 47.3734V49.6138H91.4011V47.3734H93.6579Z" fill="black"/>
<path d="M37.833 58.9526V56.725H40.0807V58.9526H37.833Z" fill="black"/>
<path d="M91.3918 58.9435V56.7323H93.6486V58.9435H91.3918Z" fill="black"/>
<path d="M40.0823 61.3789V63.612H37.8401V61.3789H40.0823Z" fill="black"/>
<path d="M91.4048 63.621V61.3898H93.6452V63.621H91.4048Z" fill="black"/>
<path d="M37.8291 54.2951V52.0456H40.0658V54.2951H37.8291Z" fill="black"/>
<path d="M93.667 52.0383V54.275H91.4175V52.0383H93.667Z" fill="black"/>
<defs>
<filter id="filter0_d_4_106" x="0" y="0" width="132" height="132" filterUnits="userSpaceOnUse" color-interpolation-filters="sRGB">
<feFlood flood-opacity="0" result="BackgroundImageFix"/>
<feColorMatrix in="SourceAlpha" type="matrix" values="0 0 0 0 0 0 0 0 0 0 0 0 0 0 0 0 0 0 127 0" result="hardAlpha"/>
<feMorphology radius="1" operator="dilate" in="SourceAlpha" result="effect1_dropShadow_4_106"/>
<feOffset/>
<feGaussianBlur stdDeviation="5"/>
<feComposite in2="hardAlpha" operator="out"/>
<feColorMatrix type="matrix" values="0 0 0 0 0.545098 0 0 0 0 0.823529 0 0 0 0 0.627451 0 0 0 0.4 0"/>
<feBlend mode="normal" in2="BackgroundImageFix" result="effect1_dropShadow_4_106"/>
<feBlend mode="normal" in="SourceGraphic" in2="effect1_dropShadow_4_106" result="shape"/>
</filter>
</defs>
</svg>
