<svg width="132" height="132" viewBox="0 0 132 132" fill="none" xmlns="http://www.w3.org/2000/svg">
<g filter="url(#filter0_d_4_109)">
<circle cx="66" cy="66" r="55" fill="white"/>
</g>
<g clip-path="url(#clip0_4_109)">
<path d="M31 91.9692V58.6147C31.4073 57.9627 32.0154 57.8093 32.7495 57.8129C38.5004 57.8294 44.2494 57.8221 50.0003 57.8221C50.2669 57.8221 50.5335 57.8221 50.8659 57.8221V57.013C50.8659 54.7138 50.8787 52.4127 50.8568 50.1135C50.8513 49.4743 51.054 48.9812 51.5106 48.5374C52.7195 47.3613 53.9212 46.1761 55.0827 44.9543C55.3292 44.6932 55.5027 44.2585 55.5137 43.8988C55.5612 42.3976 55.5082 40.8928 55.5447 39.3898C55.5594 38.7579 55.4169 38.2849 54.9238 37.8393C54.1641 37.1508 54.197 36.5372 54.9384 35.7902C56.2387 34.479 57.5463 33.1751 58.863 31.8803C59.1863 31.5607 59.5534 31.2904 59.9003 31C73.6428 31 87.3853 31 101.128 31V45.3543C100.752 45.9898 100.193 46.1816 99.4641 46.1798C92.6888 46.1615 85.9116 46.1688 79.1362 46.1688H78.4148L78.3162 46.3386C79.0997 47.0892 79.9306 47.796 80.6428 48.6068C80.9697 48.9812 81.2071 49.5492 81.2364 50.0459C81.3167 51.4083 81.2638 52.7762 81.2638 54.144C81.2638 55.3457 81.2638 56.5455 81.2638 57.8202H82.1312C87.8803 57.8202 93.6311 57.8276 99.3801 57.8111C100.114 57.8093 100.722 57.9627 101.13 58.6128V91.9674C100.889 92.2669 100.673 92.592 100.403 92.8622C97.9246 95.3478 95.4318 97.8187 92.9572 100.312C92.4934 100.779 91.993 100.998 91.3227 100.998C74.4829 100.987 57.6449 100.987 40.8051 100.998C40.1367 100.998 39.6363 100.779 39.1706 100.312C36.7308 97.8516 34.269 95.4135 31.8236 92.959C31.5223 92.6559 31.2739 92.2998 31 91.9674L31 91.9692ZM33.3723 60.1925C33.3577 60.3825 33.3358 60.5359 33.3339 60.6893C33.3339 70.6916 33.3285 80.6921 33.3486 90.6945C33.3486 90.9867 33.5312 91.3465 33.743 91.562C35.9528 93.8009 38.179 96.0271 40.4271 98.2278C40.6681 98.4633 41.0864 98.6441 41.4224 98.6441C57.8586 98.6642 74.293 98.6642 90.7292 98.6441C91.047 98.6441 91.4414 98.4798 91.6697 98.257C93.9178 96.0545 96.1477 93.832 98.3501 91.5857C98.5985 91.3319 98.7756 90.8863 98.7775 90.5301C98.7994 80.6648 98.7957 70.7994 98.7957 60.9358C98.7957 60.6948 98.7957 60.4537 98.7957 60.1907H33.3723V60.1925ZM98.7738 33.3759H81.3039V43.7892H98.7738V33.3759ZM78.875 43.8221V33.3285H78.0021C72.5964 33.3285 67.1925 33.3431 61.7869 33.312C61.0217 33.3065 60.4665 33.4892 59.9423 34.0644C59.0767 35.0141 58.1216 35.8834 57.2596 36.7308C58.7115 38.1753 60.0775 39.5359 61.4326 40.8836C61.9823 40.3431 62.5794 39.7587 63.2972 39.0556C62.7621 38.5734 62.1685 38.1589 61.7467 37.611C61.5166 37.3115 61.4344 36.7362 61.5549 36.3765C61.6554 36.0751 62.1448 35.7373 62.4717 35.7245C62.8406 35.7117 63.2972 35.9674 63.5857 36.2432C64.8403 37.4357 66.0347 38.6921 67.2875 39.8865C67.534 40.1221 67.9431 40.2992 68.281 40.3047C70.5382 40.3412 72.7955 40.3175 75.0545 40.3266C76.1558 40.3303 76.5794 40.7649 76.5904 41.8643C76.5977 42.5127 76.5904 43.161 76.5904 43.8239H78.8696L78.875 43.8221ZM57.9097 50.8531V57.7764H74.209V50.8531H57.9097ZM55.4827 57.7892V47.7741C54.754 48.5411 54.1385 49.1456 53.5815 49.7994C53.3825 50.0313 53.2199 50.3801 53.2163 50.6796C53.1834 52.6374 53.1998 54.5951 53.1998 56.5528C53.1998 56.9546 53.1998 57.3582 53.1998 57.7892H55.4845H55.4827ZM78.9298 57.7892C78.9298 55.2799 78.9298 52.8474 78.9262 50.4148C78.9262 50.3071 78.9097 50.1665 78.8422 50.0989C78.1409 49.3775 77.4286 48.6671 76.6361 47.8727V57.791H78.928L78.9298 57.7892ZM60.209 48.4607C60.209 46.7422 60.209 45.0639 60.2053 43.3874C60.2053 43.2797 60.1889 43.1391 60.1213 43.0697C59.4219 42.3501 58.7096 41.6415 57.9097 40.838V48.4607H60.209ZM62.5521 48.448H64.833V40.796C64.0331 41.6288 63.372 42.3081 62.7274 43.0039C62.6306 43.108 62.5612 43.2833 62.5612 43.4258C62.5502 45.0804 62.5539 46.7368 62.5539 48.448H62.5521ZM67.24 48.4644H69.5338V42.6588C68.8617 42.6588 68.2299 42.6387 67.6016 42.6752C67.4738 42.6825 67.2565 42.9071 67.2546 43.0331C67.2309 44.8247 67.2382 46.6181 67.2382 48.4626L67.24 48.4644ZM71.9645 42.7026V48.4425H74.2181V42.7026H71.9645Z" fill="black"/>
<path d="M98.7738 33.3759V43.7892H81.304V33.3759H98.7738Z" fill="#22B573"/>
<path d="M78.875 43.822H76.5958C76.5958 43.1591 76.6013 42.5108 76.5958 41.8625C76.583 40.7631 76.1594 40.3303 75.06 40.3248C72.8027 40.3157 70.5436 40.3394 68.2864 40.3029C67.9486 40.2974 67.5395 40.1184 67.2929 39.8847C66.0401 38.6903 64.8476 37.4338 63.5911 36.2413C63.3026 35.9674 62.846 35.7099 62.4771 35.7226C62.1502 35.7336 61.6608 36.0733 61.5603 36.3746C61.4398 36.7344 61.5202 37.3078 61.7521 37.6092C62.1721 38.157 62.7675 38.5716 63.3026 39.0537C62.5849 39.7568 61.9895 40.343 61.438 40.8818C60.0829 39.534 58.7169 38.1753 57.265 36.7289C58.127 35.8815 59.0821 35.0122 59.9478 34.0626C60.4719 33.4873 61.0253 33.3065 61.7923 33.3102C67.1961 33.343 72.6018 33.3266 78.0075 33.3266H78.8805V43.8202L78.875 43.822Z" fill="#22B573"/>
<path d="M60.2072 48.4589H57.908V40.8362C58.7079 41.6397 59.4201 42.3483 60.1195 43.0679C60.1871 43.1373 60.2036 43.2779 60.2036 43.3856C60.209 45.0621 60.2072 46.7404 60.2072 48.4589Z" fill="#22B573"/>
<path d="M62.552 48.4479C62.552 46.7367 62.5483 45.0803 62.5593 43.4258C62.5593 43.2833 62.6287 43.108 62.7255 43.0039C63.3702 42.3099 64.0313 41.6306 64.8312 40.796V48.4479H62.5502H62.552Z" fill="#22B573"/>
<path d="M67.2401 48.4626C67.2401 46.6181 67.2328 44.8265 67.2565 43.0331C67.2565 42.9071 67.4757 42.6825 67.6035 42.6752C68.2317 42.6368 68.8636 42.6588 69.5357 42.6588V48.4644H67.2419L67.2401 48.4626Z" fill="#22B573"/>
<path d="M71.9645 42.7007H74.2181V48.4406H71.9645V42.7007Z" fill="#22B573"/>
<path d="M77.2679 71.5628C77.5765 71.3491 77.8213 71.1866 78.0568 71.0131C78.5116 70.6752 78.9882 70.5255 79.5142 70.8414C80.042 71.161 80.1223 71.6596 80.0365 72.2129C79.9269 72.9105 79.8429 73.6136 79.6804 74.2985C79.5434 74.8774 79.6694 75.334 79.9963 75.8252C81.4701 78.0441 82.9092 80.2867 84.3592 82.5239C84.8907 83.3439 84.8815 83.7 84.3063 84.5054C82.5311 86.9891 80.7433 89.4636 78.9864 91.9601C78.5481 92.5829 78.0221 92.8404 77.2606 92.8294C74.9796 92.7984 72.6968 92.8184 70.414 92.8184C70.1675 92.8184 69.9209 92.8184 69.5721 92.8184C69.5721 93.2403 69.6598 93.6256 69.5502 93.9434C69.4114 94.3415 69.1868 94.7926 68.858 95.0209C68.4398 95.3113 67.9358 95.1359 67.5468 94.7798C67.4464 94.6867 67.3313 94.6027 67.2564 94.4913C66.2538 93.0175 64.8604 92.6943 63.1346 92.7801C60.3806 92.9171 57.6138 92.7983 54.8526 92.8276C54.0855 92.8367 53.5705 92.5609 53.1359 91.9418C51.3918 89.4636 49.6167 87.0092 47.8544 84.5437C47.2335 83.6744 47.2316 83.3731 47.827 82.4508C49.4341 79.9653 51.043 77.4798 52.6939 74.9267C52.3287 74.6546 51.9781 74.3807 51.6128 74.1286C51.1325 73.7963 50.7764 73.3945 50.9097 72.7681C51.0485 72.1106 51.5562 71.8805 52.1607 71.7856C52.7232 71.6979 53.2838 71.5299 53.8463 71.5189C54.7503 71.5007 55.2489 71.0441 55.7072 70.3081C57.1628 67.9687 58.7059 65.6841 60.1834 63.3574C60.5833 62.7274 61.0874 62.4735 61.8233 62.479C64.6522 62.5009 67.4829 62.5028 70.3136 62.479C71.0842 62.4717 71.5773 62.7657 71.9882 63.4159C73.5716 65.9178 75.1969 68.3924 76.8077 70.8761C76.9428 71.0843 77.0853 71.2888 77.2716 71.5646L77.2679 71.5628ZM69.563 85.8221C70.6204 85.8221 71.5974 85.6943 72.527 85.8495C74.3076 86.149 75.3905 85.4258 76.1155 83.8753C76.2763 83.532 76.2909 83.3329 76.0936 83.0298C75.4362 82.018 74.786 81.0008 74.1779 79.958C73.9113 79.4996 73.5898 79.2787 73.0566 79.2257C72.264 79.1472 71.4805 78.9755 70.6952 78.8385C70.1602 78.7454 69.7474 78.4897 69.6251 77.9272C69.5064 77.3775 69.7182 76.9502 70.1748 76.6324C70.6003 76.3347 71.0203 76.0279 71.4166 75.7449C71.4038 75.6335 71.413 75.5823 71.391 75.5476C70.6003 74.2693 69.815 72.9872 69.0096 71.7198C68.5366 70.9765 68.1823 69.9703 67.4957 69.6069C66.798 69.238 65.7571 69.4808 64.8695 69.5247C64.6102 69.5375 64.2687 69.7256 64.1281 69.9411C63.319 71.1793 62.6196 72.4941 61.7631 73.6958C61.0125 74.7496 60.6819 75.7923 61.1056 77.0525C61.2554 77.4999 61.2609 77.993 61.3485 78.4623C61.449 79.0047 61.3266 79.4704 60.8554 79.7809C60.3824 80.0932 59.9058 80.0219 59.451 79.7078C59.1424 79.4941 58.8283 79.2841 58.4923 79.054C57.9572 79.9197 57.4623 80.7086 56.9801 81.5085C56.5838 82.1678 55.888 82.8471 55.9081 83.4991C55.9282 84.1584 56.6386 84.8158 57.1007 85.4349C57.2468 85.6303 57.5609 85.8057 57.8001 85.8075C60.2418 85.8349 62.6853 85.833 65.127 85.8093C65.3863 85.8075 65.6968 85.6723 65.894 85.497C66.4711 84.9802 66.9569 84.3538 67.5705 83.8917C67.8828 83.6562 68.4581 83.5082 68.7923 83.6379C69.1283 83.7676 69.3931 84.2588 69.5411 84.6478C69.6616 84.9656 69.5648 85.3655 69.5648 85.8257L69.563 85.8221ZM55.0735 73.6721C55.6415 74.4154 55.4187 75.0436 54.9822 75.7047C53.3897 78.1172 51.8374 80.5552 50.2504 82.9713C50.013 83.3311 50.0112 83.5758 50.2669 83.9283C51.7425 85.9518 53.198 87.9898 54.6407 90.0371C54.8781 90.3749 55.1356 90.4973 55.5429 90.49C56.8194 90.4662 58.0978 90.4808 59.3743 90.4808H63.1912C62.3822 89.6718 62.426 88.9249 63.2076 88.1506C61.0508 88.1506 59.0657 88.1286 57.0824 88.1615C56.3592 88.1743 55.8826 87.9077 55.5064 87.305C54.8909 86.3207 54.2462 85.3546 53.576 84.4067C53.1322 83.7822 53.1487 83.227 53.5559 82.586C54.6791 80.82 55.7766 79.0358 56.856 77.2424C57.2431 76.5977 57.6632 76.0772 58.5982 76.2434C58.421 75.1824 58.2585 74.209 58.0868 73.1753C57.0605 73.3434 56.1017 73.5004 55.0735 73.6702V73.6721ZM58.1836 70.7428C59.5332 70.6204 59.7195 70.7044 60.2911 71.6614C61.0326 70.4634 61.7868 69.3 62.4808 68.102C62.8661 67.4354 63.3647 67.1305 64.1408 67.1542C65.3717 67.1926 66.6045 67.1907 67.8335 67.1542C68.6024 67.1305 69.1046 67.4135 69.5064 68.0783C70.8505 70.2953 72.2348 72.4905 73.6209 74.682C74.0811 75.4088 74.5687 76.1083 73.7853 76.9849C74.8518 77.162 75.7886 77.3154 76.7839 77.4816C76.9593 76.4352 77.1255 75.4399 77.3063 74.3606C76.4479 74.503 76.0407 74.0118 75.6645 73.4274C73.9295 70.7282 72.1891 68.0326 70.4231 65.3535C70.2642 65.1125 69.9191 64.8513 69.6543 64.8477C67.2601 64.8093 64.8659 64.8203 62.4717 64.8349C62.2726 64.8349 61.9841 64.9189 61.8891 65.065C60.6564 66.9186 59.451 68.7887 58.1818 70.7428H58.1836ZM76.9374 79.9799C77.5126 80.904 78.0477 81.7916 78.612 82.659C78.9955 83.2489 78.9846 83.7822 78.581 84.3629C77.8925 85.3527 77.2259 86.359 76.5758 87.3744C76.2233 87.9259 75.7686 88.1706 75.102 88.1615C73.0493 88.1341 70.9966 88.1378 68.9457 88.1597C68.2791 88.167 67.6746 88.1012 67.3313 87.5315C66.683 88.1414 66.0584 88.7277 65.4631 89.2883C66.073 89.9147 66.672 90.5283 67.313 91.1876C67.6874 90.5265 68.3047 90.4754 68.9694 90.479C71.5006 90.4918 74.0318 90.4735 76.563 90.4955C77.0031 90.4991 77.2643 90.3603 77.5144 90.0042C78.8093 88.1597 80.1278 86.3334 81.4391 84.4999C81.9346 83.8071 81.9461 83.0973 81.4738 82.3705C80.6702 81.1359 79.8667 79.9032 79.0321 78.6212C78.6339 79.8539 78.5444 79.9124 76.9374 79.9836V79.9799Z" fill="#22B573"/>
</g>
<defs>
<filter id="filter0_d_4_109" x="0" y="0" width="132" height="132" filterUnits="userSpaceOnUse" color-interpolation-filters="sRGB">
<feFlood flood-opacity="0" result="BackgroundImageFix"/>
<feColorMatrix in="SourceAlpha" type="matrix" values="0 0 0 0 0 0 0 0 0 0 0 0 0 0 0 0 0 0 127 0" result="hardAlpha"/>
<feMorphology radius="1" operator="dilate" in="SourceAlpha" result="effect1_dropShadow_4_109"/>
<feOffset/>
<feGaussianBlur stdDeviation="5"/>
<feComposite in2="hardAlpha" operator="out"/>
<feColorMatrix type="matrix" values="0 0 0 0 0.545098 0 0 0 0 0.823529 0 0 0 0 0.627451 0 0 0 0.4 0"/>
<feBlend mode="normal" in2="BackgroundImageFix" result="effect1_dropShadow_4_109"/>
<feBlend mode="normal" in="SourceGraphic" in2="effect1_dropShadow_4_109" result="shape"/>
</filter>
<clipPath id="clip0_4_109">
<rect width="70.1278" height="70" fill="white" transform="translate(31 31)"/>
</clipPath>
</defs>
</svg>
