<svg width="20" height="20" viewBox="0 0 20 20" fill="none" xmlns="http://www.w3.org/2000/svg">
<path d="M10.0004 0C15.5289 0 20.0004 4.47143 20.0004 10C20.0004 15.5286 15.5289 20 10.0004 20C4.4718 20 0.000366211 15.5286 0.000366211 10C0.000366211 4.47143 4.4718 0 10.0004 0ZM8.17179 15.2714C12.6004 15.2714 15.0289 11.6 15.0289 8.41429V8.1C15.5004 7.75714 15.9147 7.32857 16.2289 6.84286C15.8004 7.02857 15.3289 7.15714 14.8432 7.22857C15.3432 6.92857 15.7289 6.45714 15.9004 5.9C15.4289 6.17143 14.9147 6.37143 14.3718 6.48571C13.9289 6.01429 13.3004 5.72857 12.6147 5.72857C11.2861 5.72857 10.2004 6.81429 10.2004 8.14286C10.2004 8.32857 10.2147 8.51429 10.2718 8.68571C8.2718 8.58571 6.48608 7.62857 5.30037 6.17143C5.10037 6.52857 4.9718 6.94286 4.9718 7.38571C4.9718 8.21429 5.40037 8.95714 6.04322 9.38571C5.64322 9.38571 5.27179 9.27143 4.95751 9.08571V9.11429C4.95751 10.2857 5.78608 11.2571 6.88608 11.4857C6.68608 11.5429 6.4718 11.5714 6.25751 11.5714C6.10037 11.5714 5.95751 11.5571 5.80037 11.5286C6.10037 12.4857 7.00037 13.1857 8.04322 13.2C7.21465 13.8429 6.17179 14.2286 5.04322 14.2286C4.84322 14.2286 4.65751 14.2286 4.4718 14.2C5.52894 14.8857 6.80037 15.2857 8.15751 15.2857" fill="white"/>
</svg>
