<svg width="96" height="92" viewBox="0 0 96 92" fill="none" xmlns="http://www.w3.org/2000/svg">
<path d="M94.4902 59.6043C95.1297 57.0911 95.3003 54.8975 95.2022 52.99C95.2022 52.99 95.2145 53.0331 95.2206 53.0547C95.2119 52.7774 95.1661 52.5339 95.1419 52.2842C95.1026 51.899 95.0694 51.5353 95.0146 51.1777C94.9659 50.8418 94.8648 50.5674 94.8007 50.2591C94.6202 49.5408 94.4089 48.8779 94.145 48.2766C94.0622 48.0669 93.9794 47.8572 93.9027 47.6691C93.74 47.3421 93.568 47.0644 93.3898 46.7652C93.2638 46.5678 93.1595 46.3642 93.0335 46.1668C92.8399 45.8953 92.6524 45.6453 92.4649 45.3954C92.3235 45.2256 92.1759 45.0343 92.0406 44.8861C91.8377 44.6639 91.6347 44.4417 91.4102 44.2255C91.2533 44.0835 91.0964 43.9415 90.9395 43.7994C90.7211 43.6049 90.5027 43.4104 90.2688 43.2435C90.1181 43.1231 89.9457 43.0087 89.795 42.8883C89.5611 42.7215 89.3272 42.5546 89.0995 42.4093C88.961 42.332 88.8224 42.2548 88.6839 42.1775C88.2068 41.8931 87.7143 41.6364 87.2556 41.4168C87.1447 41.3549 87.0123 41.2992 86.9015 41.2373C86.686 41.1352 86.4766 41.0548 86.2673 40.9743C86.1133 40.9247 85.9748 40.8474 85.8424 40.7917C85.6607 40.7266 85.479 40.6615 85.325 40.6119C85.171 40.5623 85.0448 40.5282 84.9124 40.4725C84.7584 40.4229 84.6321 40.3888 84.5058 40.3546C84.3796 40.3205 84.2749 40.2802 84.1547 40.2677C84.0561 40.249 83.9515 40.2088 83.8529 40.1901C83.7543 40.1714 83.6557 40.1528 83.5788 40.128C83.5295 40.1186 83.4802 40.1093 83.4309 40.1C83.3323 40.0813 83.283 40.072 83.283 40.072C92.7749 29.8011 89.8224 26.7912 84.7362 19.6297C84.3091 19.028 83.8819 18.4264 83.4364 17.76C80.9751 14.0977 80.2276 11.7915 79.9169 9.87425C79.7464 8.78004 79.6835 7.81854 79.5314 6.78908C79.5008 6.68117 79.4857 6.54555 79.4766 6.43152C79.4338 6.28045 79.4186 6.14482 79.3973 5.98763C79.3545 5.83656 79.3055 5.66391 79.2842 5.50672C79.2475 5.37723 79.2047 5.22622 79.1679 5.09674C79.1128 4.90251 79.0577 4.70823 78.9811 4.52013C78.9443 4.39064 78.9015 4.23956 78.8431 4.1162C78.7542 3.88493 78.6437 3.65979 78.5271 3.41306C78.4904 3.28357 78.4105 3.16635 78.3522 3.04298C78.346 3.0214 78.3338 2.97822 78.3277 2.95664C78.1588 2.60813 77.9623 2.24413 77.7165 1.87082C75.4127 -1.976 69.1262 3.07179 64.6993 12.209C64.26 13.1264 63.8329 14.087 63.4336 15.0631C62.641 17.0367 61.9405 19.1708 61.3847 21.4037C61.1206 22.528 60.8627 23.6738 60.6756 24.8228C60.5852 25.408 60.4947 25.9933 60.4103 26.6002C60.1727 28.3931 60.0553 30.1986 60.0487 32.0659L60.0609 32.109C60.0655 32.9472 60.0578 33.7421 60.044 34.5155C60.0498 34.7004 60.0341 34.8915 60.0399 35.0764C60.0199 35.8282 60.0094 36.5307 59.9927 37.2116C59.9801 37.3318 59.9892 37.4459 59.9766 37.566C59.957 38.1545 59.9313 38.7215 59.8994 39.2668C59.8868 39.387 59.8804 39.5287 59.874 39.6704C59.8544 40.2589 59.8009 40.8103 59.7691 41.3557C59.7565 41.4758 59.744 41.596 59.753 41.7101C59.7244 42.1845 59.6896 42.6374 59.6426 43.0472C59.661 43.1119 59.6301 43.1673 59.6268 43.2382C59.5921 43.691 59.5512 44.1224 59.4981 44.5105C59.4794 44.6091 59.4823 44.7015 59.4637 44.8001C59.4105 45.1882 59.3729 45.5487 59.3291 45.8876C59.3413 45.9307 59.3259 45.9584 59.3165 46.0077C59.2666 46.325 59.2261 46.593 59.1855 46.861C59.1823 46.9319 59.1575 47.0089 59.1543 47.0797C59.1137 47.3477 59.0454 47.6003 58.9926 47.8252C58.9833 47.8744 58.9739 47.9237 58.9646 47.973C58.9272 48.1701 58.8622 48.3518 58.8187 48.5274C58.8248 48.549 58.7939 48.6043 58.8 48.6259C58.735 48.8076 58.6915 48.9831 58.6358 49.1155C58.6419 49.1371 58.611 49.1925 58.5955 49.2202C58.5398 49.3526 58.4841 49.485 58.4284 49.6174C58.3665 49.7282 58.3263 49.833 58.2583 49.9222C58.2583 49.9222 58.2429 49.9499 58.2274 49.9776C58.181 50.0607 58.1285 50.1222 58.076 50.1838C58.0235 50.2453 57.9865 50.2791 57.9279 50.3191C57.8908 50.3529 57.8322 50.3928 57.789 50.4051C57.6441 50.4695 57.5455 50.4509 57.5178 50.4354C57.8405 49.2712 57.6858 47.986 56.939 46.9153C56.3121 46.0206 55.4072 45.4611 54.4369 45.2467C55.4726 41.8283 56.7256 35.9699 55.2315 30.8674C55.1336 30.5221 54.7796 30.3427 54.4343 30.4407C54.089 30.5386 53.9096 30.8927 54.0075 31.238C55.4558 36.0969 54.1259 41.9305 53.1275 45.1518C52.4217 45.2121 51.7434 45.4511 51.1417 45.8783C50.4012 46.3915 49.8852 47.1208 49.6002 47.9245C46.3248 47.8044 40.0707 47.1301 35.8181 43.976C35.5289 43.7782 35.1436 43.8175 34.9243 44.1129C34.7265 44.4022 34.7658 44.7875 35.0612 45.0068C39.5538 48.3494 45.9187 49.0854 49.3851 49.2214C49.3742 50.0872 49.5975 50.9566 50.1384 51.7126C50.8851 52.7832 52.0303 53.3678 53.2473 53.4656C53.2596 53.5087 53.2779 53.5734 53.2686 53.6227C53.2686 53.6227 53.2686 53.6227 53.247 53.6288C53.1822 53.6472 53.1236 53.6872 53.0434 53.7333C53.0218 53.7394 53.0003 53.7455 52.9571 53.7578C52.8924 53.7761 52.806 53.8006 52.6981 53.8312C52.655 53.8435 52.6118 53.8557 52.547 53.8741C52.4607 53.8986 52.3406 53.886 52.205 53.9012C52.1402 53.9195 52.0909 53.9102 52.02 53.9069C51.8567 53.9066 51.6934 53.9064 51.5024 53.8906C51.4592 53.9029 51.4099 53.8935 51.3607 53.8841C51.0988 53.8652 50.8092 53.8307 50.498 53.8024C50.4272 53.7992 50.3501 53.7744 50.2793 53.7712C50.0113 53.7306 49.7433 53.6901 49.426 53.6402C49.3058 53.6276 49.158 53.5996 49.0317 53.5655C48.736 53.5095 48.4126 53.438 48.0676 53.3726C47.9197 53.3446 47.7718 53.3166 47.6179 53.267C47.1682 53.1614 46.6908 53.0403 46.1641 52.9099C46.1148 52.9006 46.0594 52.8696 45.9885 52.8664C45.3849 52.7112 44.7474 52.519 44.0606 52.3174C43.885 52.2739 43.6818 52.215 43.5001 52.15C42.9673 51.998 42.4068 51.8305 41.8124 51.626C41.5538 51.5361 41.2735 51.4524 41.0148 51.3626C40.4266 51.1797 39.8046 50.9597 39.161 50.7459C38.8807 50.6622 38.6221 50.5723 38.3357 50.467C37.3841 50.154 36.3987 49.804 35.3302 49.4075C30.1107 47.5304 24.735 46.7468 19.814 46.7437C18.1808 46.7406 16.5937 46.8177 15.0743 46.9689C14.125 47.075 13.2034 47.1965 12.3095 47.3335C11.7732 47.4157 11.2646 47.5133 10.7559 47.611C3.12011 49.2174 -1.51787 52.6783 0.883128 55.6348C1.1998 56.0113 1.48264 56.3508 1.77483 56.641C1.87631 56.7521 1.96553 56.8201 2.06701 56.9312C2.25772 57.1103 2.42685 57.2955 2.61144 57.453C2.7345 57.558 2.82986 57.6475 2.94679 57.731C3.09755 57.8514 3.25444 57.9934 3.39908 58.0923C3.51601 58.1757 3.63295 58.2591 3.74989 58.3425C3.89453 58.4414 4.01147 58.5248 4.14999 58.6021C4.28851 58.6794 4.40544 58.7628 4.54396 58.8401C4.65477 58.902 4.76559 58.9638 4.87028 59.0041C5.77838 59.4927 6.67747 59.8672 7.65322 60.4299C9.34927 61.3945 11.2631 62.8802 13.8571 66.4348C14.3181 67.0735 14.7514 67.6968 15.1509 68.283C20.1414 75.5183 21.9646 79.3148 34.8707 73.9282C34.8707 73.9282 34.883 73.9714 34.8582 74.0484C34.8334 74.1254 34.8208 74.2455 34.8144 74.3873C34.8144 74.3873 34.8144 74.3873 34.8205 74.4089C34.6421 75.8352 34.3384 80.0253 36.4788 83.8718C38.2047 86.9965 41.5456 89.8962 47.8484 90.9065C48.3628 90.9937 48.8927 91.0533 49.4442 91.1067C49.9957 91.1601 50.541 91.192 51.0526 91.1868C51.0526 91.1868 51.0525 91.1868 51.0741 91.1806C51.5857 91.1754 52.0634 91.1331 52.5134 91.0754C65.1414 89.312 61.7114 66.7808 61.053 62.9802L69.7641 74.4531C70.179 75.0116 70.9615 75.1395 71.52 74.7245C72.0847 74.3312 72.2341 73.5426 71.8623 72.9718L63.7017 60.48C63.7017 60.48 88.494 75.6224 94.096 61.0919C94.096 61.0919 94.1115 61.0642 94.1269 61.0365C94.3189 60.5623 94.477 60.0511 94.6013 59.5029L94.4902 59.6043Z" fill="white"/>
</svg>
