<svg width="56" height="57" viewBox="0 0 56 57" fill="none" xmlns="http://www.w3.org/2000/svg">
<path d="M15.9565 22.7202C16.8457 23.7922 22.0172 30.2021 22.5863 35.0149C17.3436 52.0001 32.5524 57 32.5524 57C34.8999 50.0074 34.0107 43.3169 31.1083 39.317C29.2233 36.7199 26.5486 34.7559 24.884 33.684C24.2153 30.5618 22.2591 27.1878 20.5518 24.6914C21.3699 24.9936 22.188 25.2885 23.0416 25.5547C28.5048 27.2309 32.2963 28.8928 34.9568 30.3675C33.719 43.8636 55.7425 49.0434 55.7425 49.0434C55.2873 46.4247 58.2536 40.6767 51.3891 33.4826C46.4096 28.2669 40.1283 28.2741 37.041 28.6697C34.6367 27.2453 31.336 25.6842 26.7549 24.1087C27.6156 23.9145 28.4408 23.6986 29.145 23.4684C44.9086 31.3819 51.1472 16.9722 51.1472 16.9722C34.6296 8.31771 28.9601 17.965 27.5516 21.3246C25.51 21.8785 22.7428 22.3174 21.8109 22.4541C15.7929 20.2886 10.7565 17.0369 6.82982 13.8212C8.2881 13.742 9.98824 13.5406 11.5461 13.0802C24.82 18.6124 33.2993 3.08762 33.2993 3.08762C16.988 -6.07762 10.4222 7.76377 9.14172 11.0443C7.00055 11.3968 4.85226 11.368 3.96307 11.332C-0.4829 7.19544 -2.89439 3.70631 -2.94419 3.63437L-5 5.0588C-4.77237 5.39692 -1.67797 9.86444 3.95595 14.7348C4.50369 15.7204 6.95075 20.2815 7.12148 24.1231C-3.04377 33.6768 12.3997 51.367 12.3997 51.367L13.9291 40.432C15.0317 32.5258 11.603 27.0295 9.61122 24.5835C9.61833 22.4181 9.00657 20.0944 8.27387 18.1232C10.5573 19.7563 13.1324 21.3246 15.9636 22.7131L15.9565 22.7202Z" fill="#8BD2A0"/>
</svg>
