<svg width="138" height="148" viewBox="0 0 138 148" fill="none" xmlns="http://www.w3.org/2000/svg">
<path d="M110.919 110.919C131.339 90.4997 131.339 57.3929 110.919 36.9733C90.4994 16.5536 57.3927 16.5536 36.973 36.9733C16.5534 57.3929 16.5534 90.4997 36.973 110.919C57.3927 131.339 90.4994 131.339 110.919 110.919Z" fill="#55B76B"/>
<path d="M91.3346 68.3159C91.3346 68.3159 93.632 69.3297 94.2238 70.4784C94.8155 71.6314 98.5227 69.2862 99.3059 71.5531C100.089 73.8201 101.999 71.5053 102.478 74.9383C102.952 78.3714 100.237 79.7115 103.339 81.6957C106.442 83.6798 110.706 88.1658 111.72 92.2472C112.734 96.3286 116.663 105.466 113.821 106.001C110.98 106.532 111.528 102.794 109.253 101.585C106.973 100.375 107.895 99.0654 106.516 96.7419C105.136 94.4184 99.258 96.5592 97.3174 95.9805C95.3768 95.4018 92.6573 97.8384 87.5926 96.5635C82.5279 95.293 82.0884 92.5605 78.8903 91.5641C75.6966 90.5676 75.3746 88.6444 80.5263 84.7415C85.6781 80.8385 83.2154 74.129 87.0313 71.6967C90.8473 69.2644 87.5404 69.4515 91.3346 68.3115V68.3159Z" fill="#8BD2A0"/>
<path d="M56.6776 33.9731C56.6776 33.9731 59.4493 32.0412 59.6408 34.2516C59.8322 36.462 57.3042 41.109 59.3492 41.6007C61.3943 42.0924 61.5335 43.798 61.2594 45.669C60.9853 47.5356 60.2108 47.2659 57.6653 45.7299C55.1199 44.194 55.0155 49.5676 53.5666 45.843C52.122 42.1185 53.2794 39.3381 53.4969 38.0632C53.7145 36.7883 56.6689 33.9731 56.6689 33.9731H56.6776Z" fill="#8BD2A0"/>
<path d="M88.1887 67.2238C88.1887 67.2238 84.4554 69.7475 83.6635 71.5445C82.8716 73.3415 81.1442 74.4293 80.7744 73.707C80.4045 72.9847 79.7605 73.1762 80.5307 71.6228C81.3008 70.0695 81.1312 69.8693 81.9448 68.5074C82.7585 67.1455 82.8063 66.6538 84.6991 66.4537C86.5918 66.2579 87.9407 65.8227 88.0669 66.5189L88.1887 67.2151V67.2238Z" fill="#8BD2A0"/>
<path d="M89.9858 60.7111C89.9858 60.7111 88.7109 62.3384 88.1017 62.16C87.4926 61.9773 86.4048 61.6248 86.457 62.3819C86.5092 63.1347 87.6362 63.8048 88.1192 63.9745C88.6021 64.1442 90.3426 65.5583 90.5732 64.4531C90.7995 63.3523 92.6052 62.7692 92.0656 61.8468C91.5261 60.9243 90.3817 60.5022 89.9858 60.7155V60.7111Z" fill="#8BD2A0"/>
<path d="M66.1066 96.0986C66.1066 96.0986 64.0137 97.7347 63.8875 99.6622C63.7613 101.59 61.738 102.499 63.4655 104.705C65.1972 106.911 66.5852 111.128 67.3423 109.731C68.1038 108.334 66.6113 107.464 67.0813 104.679C67.5512 101.894 66.9855 102.364 67.7339 100.498C68.4867 98.631 68.9523 96.9993 68.0472 96.599C67.1422 96.1987 66.1022 96.103 66.1022 96.103L66.1066 96.0986Z" fill="#8BD2A0"/>
<path d="M70.5099 101.072C70.1096 102.552 70.2054 106.02 70.9581 106.355C71.7109 106.685 74.3868 106.677 75.3049 105.819C76.223 104.962 78.1636 103.257 76.1447 102.443C74.1258 101.625 72.3592 102.034 71.6456 100.711C70.932 99.3884 70.5099 101.077 70.5099 101.077V101.072Z" fill="#8BD2A0"/>
<path d="M106.607 73.3068C106.133 72.1059 104.305 72.8021 104.706 74.0291C105.036 75.0473 105.254 76.3787 104.867 77.7319C104.053 80.5689 108.839 83.4319 109.905 84.7155C110.971 85.9991 112.981 83.0012 110.562 81.091C108.143 79.1809 107.103 79.629 107.121 76.5354C107.125 75.3301 106.951 74.1814 106.607 73.3112V73.3068Z" fill="#8BD2A0"/>
<path d="M105.859 70.4752C105.398 70.5753 104.923 70.597 104.458 70.5143C103.84 70.4056 103.057 70.2011 102.469 69.8356C101.338 69.1307 104.31 68.5868 105.476 67.6861C106.646 66.7854 108.657 66.8985 109.205 68.6347C109.657 70.0618 106.912 70.2533 105.859 70.4795V70.4752Z" fill="#8BD2A0"/>
<path d="M44.0115 70.531C44.0115 70.531 45.691 73.9336 47.3488 74.1207C49.0066 74.3078 49.2024 75.1563 50.0117 74.6385C50.821 74.1207 52.3439 73.5246 50.4338 71.5187C48.5236 69.5128 50.1509 67.5113 47.1356 68.3163C44.1203 69.1212 44.3726 68.3032 44.0158 70.531H44.0115Z" fill="#8BD2A0"/>
<path d="M106.185 108.748C106.185 108.748 106.816 106.868 106.102 105.619C105.389 104.37 106.276 102.969 104.292 102.308C102.308 101.647 99.7149 99.5885 99.8149 100.772C99.915 101.951 101.203 101.886 102.051 103.814C102.9 105.741 103.061 105.215 103.361 106.685C103.661 108.156 104.04 109.366 104.767 109.239C105.493 109.118 106.181 108.752 106.181 108.752L106.185 108.748Z" fill="#8BD2A0"/>
<path d="M21.7074 71.7066C23.9483 69.3569 26.9288 66.9116 29.2001 67.6817C33.2554 69.0567 38.0764 67.6165 39.9431 68.9871C41.8097 70.3577 39.6211 74.5392 37.8763 76.1708C36.1271 77.8025 36.0706 79.4908 38.6812 78.2376C41.2919 76.9889 42.1056 74.6697 44.4204 75.4877C46.7352 76.3014 47.1051 78.7293 48.8325 78.3943C50.5599 78.0592 53.3794 77.7242 53.8102 78.4639C54.2409 79.2036 55.2548 82.1885 49.1632 82.3147C43.0716 82.4408 42.7583 84.7034 43.1499 85.8391C43.5415 86.9704 42.5712 87.7797 40.9134 88.4193C39.2599 89.0633 39.0685 93.2317 36.4752 94.2847C33.8863 95.3376 35.3657 98.6663 38.7161 95.8902C42.0664 93.1142 47.0267 92.2831 47.3226 90.2163C47.6141 88.1495 46.5612 85.5606 50.5555 84.438C54.5499 83.3154 56.869 81.9405 59.5232 83.385C62.1774 84.8296 64.3835 86.8311 65.4321 90.5166C66.4807 94.202 62.2601 93.5102 61.3333 98.105C60.4022 102.704 57.6784 100.951 60.846 105.437C64.0136 109.918 67.4771 111.241 67.1247 116.093C66.7679 120.944 71.3323 121.17 65.3233 123.598C59.3144 126.026 59.31 120.744 54.6238 119.704C49.9377 118.669 52.9574 117.254 49.5896 114.948C46.5916 112.895 45.6953 115.292 41.4138 114.9C38.6334 112.69 36.0401 110.162 33.6861 107.316C25.0796 96.9258 21.1679 84.1987 21.7074 71.7066Z" fill="#8BD2A0"/>
<path d="M44.2726 36.6001C47.2575 35.5819 47.3793 37.4877 47.0094 40.3464C46.6439 43.2008 47.2836 45.9551 51.0865 47.9044C54.8894 49.8537 54.8285 52.6384 55.542 54.6008C56.2556 56.5632 56.3427 57.7641 51.2475 54.6965C46.1523 51.629 46.992 53.2998 42.8933 54.5138C38.7945 55.7234 36.5275 56.511 35.7965 53.6479C35.0655 50.7892 36.1098 50.2888 33.3816 49.6361C31.1452 49.101 29.3133 50.6717 28.0123 48.9443C30.6578 44.0797 34.1213 39.5676 38.3811 35.6211C40.4697 36.4348 42.841 37.0874 44.2726 36.6001Z" fill="#8BD2A0"/>
<path d="M58.6967 23.917C58.5705 25.0875 58.0222 26.3101 56.6038 27.2891C55.3028 28.1855 54.5109 29.1993 53.9496 30.1696C52.8139 32.1363 52.6312 33.929 51.0647 34.2466C48.7282 34.7252 47.4576 32.3147 43.3241 32.8238C42.667 32.9065 42.1014 32.9065 41.6053 32.8586C46.8485 28.7294 52.6486 25.7619 58.6923 23.9213L58.6967 23.917Z" fill="#8BD2A0"/>
<path d="M67.8993 24.8576C65.0536 27.5814 66.3763 29.4002 64.0572 30.7751C61.7337 32.1545 57.983 30.7055 59.4798 28.5517C60.9766 26.3979 65.1711 24.2006 63.7178 22.669C63.7178 22.669 63.7134 22.6603 63.7091 22.6559C65.6323 22.273 67.5729 22.0032 69.5179 21.8379C69.3351 22.8387 68.8826 23.909 67.8993 24.8489V24.8576Z" fill="#8BD2A0"/>
<path d="M65.0971 43.037C68.5258 43.6592 72.5028 48.0147 74.3607 46.296C76.2143 44.5773 73.2381 43.3982 73.534 40.2392C73.8299 37.0759 66.2067 38.6554 63.7787 39.0253C61.3508 39.3951 59.3623 38.3117 63.2696 34.8917C67.177 31.4717 66.7331 29.8356 70.9625 27.238C73.0249 25.9762 73.6645 23.6788 73.782 21.6555C78.5422 21.6424 83.2936 22.282 87.8928 23.5482C88.4889 24.8013 89.333 26.3112 90.46 27.6644C92.9662 30.6885 93.1229 33.2948 96.0425 36.1622C98.9621 39.0253 105.228 48.7849 103.283 49.2983C101.342 49.8161 99.8323 43.594 97.313 43.855C94.798 44.1161 103.566 53.7147 103.5 55.4987C103.204 63.3177 95.442 64.9102 95.1287 67.1728C94.8155 69.4354 90.9212 68.4738 93.7364 63.953C96.5516 59.4321 91.2867 60.3328 94.4369 57.5394C97.5871 54.746 92.3309 52.3572 91.0517 54.3326C89.7725 56.3037 86.1958 55.0723 87.1444 57.7526C88.0886 60.4329 87.871 61.7078 84.3945 58.3922C80.9179 55.0766 81.6967 59.5366 77.6067 56.3602C73.5166 53.1882 73.5209 58.4705 70.5709 60.1849C67.6208 61.9036 65.9717 59.2537 69.0567 56.1557C72.1373 53.0534 70.3446 51.9917 68.7564 54.0324C67.1683 56.0774 65.2886 60.1849 64.4009 55.8163" fill="#8BD2A0"/>
<path d="M70.9625 27.2378C73.025 25.976 73.6646 23.6786 73.7821 21.6553" stroke="white" stroke-width="0.38" stroke-miterlimit="10" stroke-linecap="round"/>
<path d="M74.3607 46.296C76.2143 44.5773 73.2381 43.3981 73.534 40.2392C73.8299 37.0759 66.2067 38.6553 63.7787 39.0252C61.3508 39.395 59.3623 38.3116 63.2696 34.8916" stroke="white" stroke-width="0.38" stroke-miterlimit="10" stroke-linecap="round"/>
<path d="M84.3901 58.4002C80.9136 55.0846 81.6924 59.5445 77.6023 56.3682C73.5123 53.1962 73.5166 58.4785 70.5665 60.1928C67.6165 61.9115 65.9674 59.2617 69.0523 56.1637C72.1329 53.0613 70.3403 51.9996 68.7521 54.0403C67.1639 56.0853 65.2842 60.1928 64.3966 55.8243" stroke="white" stroke-width="0.38" stroke-miterlimit="10" stroke-linecap="round"/>
<path d="M95.1287 67.181C94.8154 69.4436 90.9212 68.482 93.7363 63.9611C96.5515 59.4403 91.2866 60.341 94.4369 57.5475C97.5871 54.7541 92.3309 52.3653 91.0517 54.3408C89.7724 56.3118 86.1958 55.0804 87.1444 57.7608" stroke="white" stroke-width="0.38" stroke-miterlimit="10" stroke-linecap="round"/>
<path d="M97.313 43.8633C94.7981 44.1244 103.566 53.723 103.5 55.507" stroke="white" stroke-width="0.38" stroke-miterlimit="10" stroke-linecap="round"/>
<path d="M90.4601 27.6719C92.9663 30.6959 93.123 33.3023 96.0426 36.1697C98.9622 39.0327 105.228 48.7923 103.283 49.3058" stroke="white" stroke-width="0.38" stroke-miterlimit="10" stroke-linecap="round"/>
<path d="M56.6776 33.9731C56.6776 33.9731 59.4493 32.0412 59.6408 34.2516C59.8322 36.462 57.3042 41.109 59.3492 41.6007C61.3943 42.0924 61.5335 43.798 61.2594 45.669C60.9853 47.5356 60.2108 47.2659 57.6653 45.7299C55.1199 44.194 55.0155 49.5676 53.5666 45.843C52.122 42.1185 53.2794 39.3381 53.4969 38.0632C53.7145 36.7883 56.6689 33.9731 56.6689 33.9731H56.6776Z" stroke="white" stroke-width="0.38" stroke-miterlimit="10" stroke-linecap="round"/>
<path d="M42.8932 54.5104C38.7945 55.7201 36.5275 56.5076 35.7965 53.6446C35.0655 50.7859 36.1098 50.2855 33.3816 49.6328" stroke="white" stroke-width="0.38" stroke-miterlimit="10" stroke-linecap="round"/>
<path d="M51.0864 47.9014C54.8893 49.8507 54.8284 52.6354 55.542 54.5978C56.2556 56.5602 56.3426 57.7611 51.2474 54.6935" stroke="white" stroke-width="0.38" stroke-miterlimit="10" stroke-linecap="round"/>
<path d="M38.3811 35.6172C40.4697 36.4309 42.841 37.0835 44.2726 36.5962C47.2574 35.578 47.3793 37.4838 47.0094 40.3425" stroke="white" stroke-width="0.38" stroke-miterlimit="10" stroke-linecap="round"/>
<path d="M54.6414 29.1387C52.84 31.4709 52.9096 33.8684 51.0735 34.2469C48.7369 34.7255 47.4664 32.315 43.3328 32.8241" stroke="white" stroke-width="0.38" stroke-miterlimit="10" stroke-linecap="round"/>
<path d="M58.6965 23.917C58.5704 25.0875 58.0221 26.3101 56.6036 27.2891" stroke="white" stroke-width="0.38" stroke-miterlimit="10" stroke-linecap="round"/>
<path d="M59.4799 28.556C60.9767 26.4021 65.1712 24.2048 63.7179 22.6732C63.7179 22.6732 63.7135 22.6645 63.7092 22.6602" stroke="white" stroke-width="0.38" stroke-miterlimit="10" stroke-linecap="round"/>
<path d="M67.8993 24.8574C65.0536 27.5812 66.3764 29.4 64.0572 30.775" stroke="white" stroke-width="0.38" stroke-miterlimit="10" stroke-linecap="round"/>
<path d="M48.1537 114.226C46.1653 113.656 44.9295 115.218 41.4138 114.896" stroke="white" stroke-width="0.38" stroke-miterlimit="10" stroke-linecap="round"/>
<path d="M47.3226 90.2112C47.6142 88.1445 46.5612 85.5555 50.5555 84.4329C54.5499 83.3103 56.8691 81.9354 59.5233 83.3799" stroke="white" stroke-width="0.38" stroke-miterlimit="10" stroke-linecap="round"/>
<path d="M36.4753 94.2754C33.8863 95.3284 35.3657 98.657 38.7161 95.881" stroke="white" stroke-width="0.38" stroke-miterlimit="10" stroke-linecap="round"/>
<path d="M48.8283 78.3888C50.5557 78.0537 53.3752 77.7187 53.806 78.4584C54.2368 79.1981 55.2506 82.183 49.159 82.3092C43.0674 82.4353 42.7541 84.6979 43.1457 85.8336" stroke="white" stroke-width="0.38" stroke-miterlimit="10" stroke-linecap="round"/>
<path d="M39.9432 68.9863C41.8098 70.3569 39.6212 74.5384 37.8764 76.1701C36.1272 77.8018 36.0706 79.49 38.6813 78.2369C41.292 76.9881 42.1057 74.6689 44.4205 75.4869" stroke="white" stroke-width="0.38" stroke-miterlimit="10" stroke-linecap="round"/>
<path d="M21.7075 71.7066C23.9484 69.3569 26.9289 66.9116 29.2002 67.6817" stroke="white" stroke-width="0.38" stroke-miterlimit="10" stroke-linecap="round"/>
</svg>
